<mxfile host="app.diagrams.net" modified="2023-08-08T03:26:09.919Z" agent="Mozilla/5.0 (Windows NT 10.0; Win64; x64) AppleWebKit/537.36 (KHTML, like Gecko) Chrome/115.0.0.0 Safari/537.36 Edg/115.0.1901.188" etag="vupJBCqPXygziEH9A1hm" version="21.6.6" type="github">
  <diagram name="第 1 页" id="stkLOypLZ-UmR0rTxk0s">
    <mxGraphModel dx="1782" dy="999" grid="1" gridSize="10" guides="1" tooltips="1" connect="1" arrows="1" fold="1" page="1" pageScale="1" pageWidth="827" pageHeight="1169" math="0" shadow="0">
      <root>
        <mxCell id="0" />
        <mxCell id="1" parent="0" />
        <mxCell id="WRboyPtA0cGVxALPe9MC-121" style="edgeStyle=orthogonalEdgeStyle;rounded=0;orthogonalLoop=1;jettySize=auto;html=1;exitX=0.5;exitY=1;exitDx=0;exitDy=0;entryX=0.5;entryY=0;entryDx=0;entryDy=0;" parent="1" source="WRboyPtA0cGVxALPe9MC-111" target="WRboyPtA0cGVxALPe9MC-94" edge="1">
          <mxGeometry relative="1" as="geometry" />
        </mxCell>
        <mxCell id="WRboyPtA0cGVxALPe9MC-111" value="" style="rounded=0;whiteSpace=wrap;html=1;" parent="1" vertex="1">
          <mxGeometry x="727.91" y="37.660000000000025" width="600" height="280" as="geometry" />
        </mxCell>
        <mxCell id="WRboyPtA0cGVxALPe9MC-2" value="" style="rounded=0;whiteSpace=wrap;html=1;" parent="1" vertex="1">
          <mxGeometry x="40" y="40" width="600" height="280" as="geometry" />
        </mxCell>
        <mxCell id="WRboyPtA0cGVxALPe9MC-5" value="&lt;font color=&quot;#67ab9f&quot; face=&quot;Comic Sans MS&quot; style=&quot;font-size: 50px;&quot;&gt;&lt;b&gt;Cube&lt;/b&gt;&lt;/font&gt;" style="text;html=1;strokeColor=none;fillColor=none;align=center;verticalAlign=middle;whiteSpace=wrap;rounded=0;" parent="1" vertex="1">
          <mxGeometry x="40" y="90" width="600" height="30" as="geometry" />
        </mxCell>
        <mxCell id="WRboyPtA0cGVxALPe9MC-6" value="&lt;font style=&quot;font-size: 16px;&quot; face=&quot;Comic Sans MS&quot;&gt;&lt;b&gt;New /Continue&lt;/b&gt;&lt;/font&gt;" style="rounded=1;whiteSpace=wrap;html=1;strokeWidth=2;fillWeight=4;hachureGap=8;hachureAngle=45;fillColor=#D4E1F5;sketch=1;strokeColor=#10739e;" parent="1" vertex="1">
          <mxGeometry x="140" y="180" width="120" height="30" as="geometry" />
        </mxCell>
        <mxCell id="WRboyPtA0cGVxALPe9MC-52" style="edgeStyle=orthogonalEdgeStyle;rounded=0;orthogonalLoop=1;jettySize=auto;html=1;exitX=0.5;exitY=1;exitDx=0;exitDy=0;entryX=0.5;entryY=0;entryDx=0;entryDy=0;" parent="1" source="WRboyPtA0cGVxALPe9MC-10" target="WRboyPtA0cGVxALPe9MC-12" edge="1">
          <mxGeometry relative="1" as="geometry" />
        </mxCell>
        <mxCell id="WRboyPtA0cGVxALPe9MC-10" value="" style="rounded=0;whiteSpace=wrap;html=1;" parent="1" vertex="1">
          <mxGeometry x="1400" y="37.66" width="600" height="280" as="geometry" />
        </mxCell>
        <mxCell id="WRboyPtA0cGVxALPe9MC-189" style="edgeStyle=orthogonalEdgeStyle;rounded=0;orthogonalLoop=1;jettySize=auto;html=1;exitX=0.5;exitY=1;exitDx=0;exitDy=0;" parent="1" source="WRboyPtA0cGVxALPe9MC-12" target="WRboyPtA0cGVxALPe9MC-161" edge="1">
          <mxGeometry relative="1" as="geometry" />
        </mxCell>
        <mxCell id="WRboyPtA0cGVxALPe9MC-12" value="" style="rounded=0;whiteSpace=wrap;html=1;" parent="1" vertex="1">
          <mxGeometry x="1400" y="404.11999999999995" width="600" height="360" as="geometry" />
        </mxCell>
        <mxCell id="WRboyPtA0cGVxALPe9MC-20" value="" style="html=1;whiteSpace=wrap;shape=isoCube2;backgroundOutline=1;isoAngle=15;" parent="1" vertex="1">
          <mxGeometry x="1620" y="564.1199999999999" width="90" height="100" as="geometry" />
        </mxCell>
        <mxCell id="WRboyPtA0cGVxALPe9MC-23" value="" style="html=1;whiteSpace=wrap;shape=isoCube2;backgroundOutline=1;isoAngle=15;" parent="1" vertex="1">
          <mxGeometry x="1700" y="564.1199999999999" width="90" height="100" as="geometry" />
        </mxCell>
        <mxCell id="WRboyPtA0cGVxALPe9MC-24" value="" style="html=1;whiteSpace=wrap;shape=isoCube2;backgroundOutline=1;isoAngle=15;" parent="1" vertex="1">
          <mxGeometry x="1660" y="584.1199999999999" width="90" height="100" as="geometry" />
        </mxCell>
        <mxCell id="WRboyPtA0cGVxALPe9MC-29" value="" style="html=1;whiteSpace=wrap;shape=isoCube2;backgroundOutline=1;isoAngle=15;" parent="1" vertex="1">
          <mxGeometry x="1660" y="478.11999999999995" width="90" height="100" as="geometry" />
        </mxCell>
        <mxCell id="WRboyPtA0cGVxALPe9MC-30" value="" style="html=1;whiteSpace=wrap;shape=isoCube2;backgroundOutline=1;isoAngle=15;" parent="1" vertex="1">
          <mxGeometry x="1610" y="504.11999999999995" width="90" height="100" as="geometry" />
        </mxCell>
        <mxCell id="WRboyPtA0cGVxALPe9MC-31" value="" style="html=1;whiteSpace=wrap;shape=isoCube2;backgroundOutline=1;isoAngle=15;" parent="1" vertex="1">
          <mxGeometry x="1710" y="504.11999999999995" width="90" height="100" as="geometry" />
        </mxCell>
        <mxCell id="WRboyPtA0cGVxALPe9MC-32" value="" style="html=1;whiteSpace=wrap;shape=isoCube2;backgroundOutline=1;isoAngle=15;strokeColor=#10739e;fillColor=#b1ddf0;strokeWidth=3;dashed=1;" parent="1" vertex="1">
          <mxGeometry x="1660" y="530.1199999999999" width="90" height="100" as="geometry" />
        </mxCell>
        <mxCell id="WRboyPtA0cGVxALPe9MC-48" value="" style="html=1;whiteSpace=wrap;aspect=fixed;shape=rhombus;perimeter=rhombusPerimeter;strokeWidth=2;fillWeight=-1;hachureGap=8;fillStyle=cross-hatch;fillColor=#e1d5e7;sketch=1;strokeColor=#9673a6;" parent="1" vertex="1">
          <mxGeometry x="1600" y="179.66" width="210" height="126" as="geometry" />
        </mxCell>
        <mxCell id="WRboyPtA0cGVxALPe9MC-49" value="" style="html=1;whiteSpace=wrap;aspect=fixed;shape=rhombus;rotation=-120;fillColor=#fad7ac;strokeColor=#b46504;perimeter=rhombusPerimeter;strokeWidth=2;fillWeight=-1;hachureGap=8;fillStyle=cross-hatch;sketch=1;" parent="1" vertex="1">
          <mxGeometry x="1653.27" y="83.54999999999987" width="220" height="132" as="geometry" />
        </mxCell>
        <mxCell id="WRboyPtA0cGVxALPe9MC-50" value="" style="html=1;whiteSpace=wrap;aspect=fixed;shape=rhombus;rotation=120;fillColor=#bac8d3;strokeColor=#23445d;perimeter=rhombusPerimeter;strokeWidth=2;fillWeight=-1;hachureGap=8;fillStyle=cross-hatch;sketch=1;" parent="1" vertex="1">
          <mxGeometry x="1538.33" y="79.16" width="221.67" height="133" as="geometry" />
        </mxCell>
        <mxCell id="WRboyPtA0cGVxALPe9MC-51" value="" style="shape=ellipse;whiteSpace=wrap;html=1;perimeter=ellipsePerimeter;strokeWidth=2;fillWeight=2;hachureGap=8;fillColor=#e51400;fillStyle=dots;sketch=1;fontColor=#ffffff;strokeColor=#B20000;" parent="1" vertex="1">
          <mxGeometry x="1675" y="212.66" width="20" height="30" as="geometry" />
        </mxCell>
        <mxCell id="WRboyPtA0cGVxALPe9MC-64" value="&lt;font style=&quot;font-size: 20px;&quot; face=&quot;Comic Sans MS&quot;&gt;&lt;b&gt;Skill 1&lt;/b&gt;&lt;/font&gt;" style="html=1;whiteSpace=wrap;shape=label;backgroundOutline=1;isoAngle=15;rounded=1;strokeWidth=2;fillWeight=4;hachureGap=8;hachureAngle=45;fillColor=#b0e3e6;sketch=1;arcSize=50;strokeColor=#0e8088;dashed=1;" parent="1" vertex="1">
          <mxGeometry x="1870" y="538.38" width="90" height="30" as="geometry" />
        </mxCell>
        <mxCell id="WRboyPtA0cGVxALPe9MC-68" value="&lt;font size=&quot;1&quot; face=&quot;Comic Sans MS&quot;&gt;&lt;b style=&quot;font-size: 20px;&quot;&gt;Skill 2&lt;/b&gt;&lt;/font&gt;" style="html=1;whiteSpace=wrap;shape=label;backgroundOutline=1;isoAngle=15;rounded=1;strokeWidth=2;fillWeight=4;hachureGap=8;hachureAngle=45;fillColor=#fad7ac;sketch=1;arcSize=50;strokeColor=#b46504;dashed=1;" parent="1" vertex="1">
          <mxGeometry x="1873.27" y="596.94" width="90" height="30" as="geometry" />
        </mxCell>
        <mxCell id="WRboyPtA0cGVxALPe9MC-82" value="&lt;font style=&quot;font-size: 18px;&quot; face=&quot;Comic Sans MS&quot;&gt;Collection&lt;/font&gt;" style="rounded=1;whiteSpace=wrap;html=1;strokeWidth=2;fillWeight=4;hachureGap=8;hachureAngle=45;fillColor=#D4E1F5;sketch=1;strokeColor=#23445d;" parent="1" vertex="1">
          <mxGeometry x="140" y="240" width="120" height="30" as="geometry" />
        </mxCell>
        <mxCell id="WRboyPtA0cGVxALPe9MC-83" value="&lt;font style=&quot;font-size: 18px;&quot; face=&quot;Comic Sans MS&quot;&gt;Settings&lt;/font&gt;" style="rounded=1;whiteSpace=wrap;html=1;strokeWidth=2;fillWeight=4;hachureGap=8;hachureAngle=45;fillColor=#D4E1F5;sketch=1;strokeColor=#23445d;" parent="1" vertex="1">
          <mxGeometry x="430" y="180" width="120" height="30" as="geometry" />
        </mxCell>
        <mxCell id="WRboyPtA0cGVxALPe9MC-84" value="&lt;font style=&quot;font-size: 18px;&quot; face=&quot;Comic Sans MS&quot;&gt;Credits&lt;/font&gt;" style="rounded=1;whiteSpace=wrap;html=1;strokeWidth=2;fillWeight=4;hachureGap=8;hachureAngle=45;fillColor=#D4E1F5;sketch=1;strokeColor=#23445d;" parent="1" vertex="1">
          <mxGeometry x="430" y="240" width="120" height="30" as="geometry" />
        </mxCell>
        <mxCell id="WRboyPtA0cGVxALPe9MC-85" value="" style="rounded=0;whiteSpace=wrap;html=1;" parent="1" vertex="1">
          <mxGeometry x="1400" y="1242.0000000000002" width="600" height="320" as="geometry" />
        </mxCell>
        <mxCell id="WRboyPtA0cGVxALPe9MC-87" value="" style="html=1;whiteSpace=wrap;aspect=fixed;shape=rhombus;perimeter=rhombusPerimeter;strokeWidth=2;fillWeight=-1;hachureGap=8;fillStyle=cross-hatch;fillColor=#e1d5e7;sketch=1;strokeColor=#9673a6;" parent="1" vertex="1">
          <mxGeometry x="1600" y="1400.0000000000002" width="210" height="126" as="geometry" />
        </mxCell>
        <mxCell id="WRboyPtA0cGVxALPe9MC-88" value="" style="html=1;whiteSpace=wrap;aspect=fixed;shape=rhombus;rotation=-120;fillColor=#fad7ac;strokeColor=#b46504;perimeter=rhombusPerimeter;strokeWidth=2;fillWeight=-1;hachureGap=8;fillStyle=cross-hatch;sketch=1;" parent="1" vertex="1">
          <mxGeometry x="1653.27" y="1303.89" width="220" height="132" as="geometry" />
        </mxCell>
        <mxCell id="WRboyPtA0cGVxALPe9MC-89" value="" style="html=1;whiteSpace=wrap;aspect=fixed;shape=rhombus;rotation=120;fillColor=#bac8d3;strokeColor=#23445d;perimeter=rhombusPerimeter;strokeWidth=2;fillWeight=-1;hachureGap=8;fillStyle=cross-hatch;sketch=1;" parent="1" vertex="1">
          <mxGeometry x="1538.33" y="1299.5000000000002" width="221.67" height="133" as="geometry" />
        </mxCell>
        <mxCell id="WRboyPtA0cGVxALPe9MC-90" value="" style="shape=ellipse;whiteSpace=wrap;html=1;perimeter=ellipsePerimeter;strokeWidth=2;fillWeight=2;hachureGap=8;fillColor=#e51400;fillStyle=dots;sketch=1;fontColor=#ffffff;strokeColor=#B20000;" parent="1" vertex="1">
          <mxGeometry x="1675" y="1433.0000000000002" width="20" height="30" as="geometry" />
        </mxCell>
        <mxCell id="WRboyPtA0cGVxALPe9MC-122" style="edgeStyle=orthogonalEdgeStyle;rounded=0;orthogonalLoop=1;jettySize=auto;html=1;exitX=0.5;exitY=1;exitDx=0;exitDy=0;entryX=0.5;entryY=0;entryDx=0;entryDy=0;" parent="1" source="WRboyPtA0cGVxALPe9MC-118" target="WRboyPtA0cGVxALPe9MC-113" edge="1">
          <mxGeometry relative="1" as="geometry" />
        </mxCell>
        <mxCell id="WRboyPtA0cGVxALPe9MC-124" style="edgeStyle=orthogonalEdgeStyle;rounded=0;orthogonalLoop=1;jettySize=auto;html=1;exitX=0.5;exitY=1;exitDx=0;exitDy=0;entryX=0.5;entryY=0;entryDx=0;entryDy=0;" parent="1" source="WRboyPtA0cGVxALPe9MC-94" target="WRboyPtA0cGVxALPe9MC-113" edge="1">
          <mxGeometry relative="1" as="geometry" />
        </mxCell>
        <mxCell id="WRboyPtA0cGVxALPe9MC-94" value="" style="rounded=0;whiteSpace=wrap;html=1;" parent="1" vertex="1">
          <mxGeometry x="727.91" y="377.65999999999997" width="600" height="300" as="geometry" />
        </mxCell>
        <mxCell id="WRboyPtA0cGVxALPe9MC-96" value="" style="html=1;whiteSpace=wrap;aspect=fixed;shape=rhombus;perimeter=rhombusPerimeter;strokeWidth=2;fillWeight=-1;hachureGap=8;fillStyle=cross-hatch;fillColor=#e1d5e7;sketch=1;strokeColor=#9673a6;" parent="1" vertex="1">
          <mxGeometry x="937.91" y="166.9999999999999" width="146.67" height="88" as="geometry" />
        </mxCell>
        <mxCell id="WRboyPtA0cGVxALPe9MC-98" value="" style="html=1;whiteSpace=wrap;aspect=fixed;shape=rhombus;rotation=120;fillColor=#bac8d3;strokeColor=#23445d;perimeter=rhombusPerimeter;strokeWidth=2;fillWeight=-1;hachureGap=8;fillStyle=cross-hatch;sketch=1;" parent="1" vertex="1">
          <mxGeometry x="897.91" y="100.33000000000004" width="144.46" height="86.67" as="geometry" />
        </mxCell>
        <mxCell id="WRboyPtA0cGVxALPe9MC-97" value="" style="html=1;whiteSpace=wrap;aspect=fixed;shape=rhombus;rotation=-120;fillColor=#fad7ac;strokeColor=#b46504;perimeter=rhombusPerimeter;strokeWidth=2;fillWeight=-1;hachureGap=8;fillStyle=cross-hatch;sketch=1;" parent="1" vertex="1">
          <mxGeometry x="977.91" y="101.61000000000001" width="140.18" height="84.11" as="geometry" />
        </mxCell>
        <mxCell id="WRboyPtA0cGVxALPe9MC-105" value="" style="html=1;whiteSpace=wrap;aspect=fixed;shape=rhombus;perimeter=rhombusPerimeter;strokeWidth=2;fillWeight=-1;hachureGap=8;fillStyle=cross-hatch;fillColor=#e1d5e7;sketch=1;strokeColor=#9673a6;" parent="1" vertex="1">
          <mxGeometry x="917.15" y="549.66" width="146.67" height="88" as="geometry" />
        </mxCell>
        <mxCell id="WRboyPtA0cGVxALPe9MC-106" value="" style="html=1;whiteSpace=wrap;aspect=fixed;shape=rhombus;rotation=120;fillColor=#bac8d3;strokeColor=#23445d;perimeter=rhombusPerimeter;strokeWidth=2;fillWeight=-1;hachureGap=8;fillStyle=cross-hatch;sketch=1;" parent="1" vertex="1">
          <mxGeometry x="877.15" y="482.9899999999999" width="144.46" height="86.67" as="geometry" />
        </mxCell>
        <mxCell id="WRboyPtA0cGVxALPe9MC-107" value="" style="html=1;whiteSpace=wrap;aspect=fixed;shape=rhombus;perimeter=rhombusPerimeter;strokeWidth=2;fillWeight=-1;hachureGap=8;fillStyle=cross-hatch;fillColor=none;sketch=1;strokeColor=#A9C4EB;" parent="1" vertex="1">
          <mxGeometry x="987.15" y="509.65999999999997" width="146.67" height="88" as="geometry" />
        </mxCell>
        <mxCell id="WRboyPtA0cGVxALPe9MC-108" value="" style="html=1;whiteSpace=wrap;aspect=fixed;shape=rhombus;rotation=120;fillColor=none;perimeter=rhombusPerimeter;strokeWidth=2;fillWeight=-1;hachureGap=8;fillStyle=cross-hatch;sketch=1;strokeColor=#7EA6E0;" parent="1" vertex="1">
          <mxGeometry x="952.87" y="445.55000000000007" width="144.46" height="86.67" as="geometry" />
        </mxCell>
        <mxCell id="WRboyPtA0cGVxALPe9MC-109" value="" style="html=1;whiteSpace=wrap;aspect=fixed;shape=rhombus;rotation=-120;fillColor=#fad7ac;strokeColor=#b46504;perimeter=rhombusPerimeter;strokeWidth=2;fillWeight=-1;hachureGap=8;fillStyle=cross-hatch;sketch=1;" parent="1" vertex="1">
          <mxGeometry x="957.15" y="484.26999999999987" width="140.18" height="84.11" as="geometry" />
        </mxCell>
        <mxCell id="WRboyPtA0cGVxALPe9MC-110" value="" style="html=1;whiteSpace=wrap;aspect=fixed;shape=rhombus;rotation=-120;fillColor=none;strokeColor=#7EA6E0;perimeter=rhombusPerimeter;strokeWidth=2;fillWeight=-1;hachureGap=8;fillStyle=cross-hatch;sketch=1;" parent="1" vertex="1">
          <mxGeometry x="1027.15" y="448.11" width="140.18" height="84.11" as="geometry" />
        </mxCell>
        <mxCell id="WRboyPtA0cGVxALPe9MC-113" value="" style="rounded=0;whiteSpace=wrap;html=1;" parent="1" vertex="1">
          <mxGeometry x="728.0000000000001" y="727.66" width="600" height="320" as="geometry" />
        </mxCell>
        <mxCell id="WRboyPtA0cGVxALPe9MC-114" value="" style="html=1;whiteSpace=wrap;aspect=fixed;shape=rhombus;perimeter=rhombusPerimeter;strokeWidth=2;fillWeight=-1;hachureGap=8;fillStyle=cross-hatch;fillColor=#e1d5e7;sketch=1;strokeColor=#9673a6;" parent="1" vertex="1">
          <mxGeometry x="981.66" y="861.2100000000003" width="146.67" height="88" as="geometry" />
        </mxCell>
        <mxCell id="WRboyPtA0cGVxALPe9MC-115" value="" style="html=1;whiteSpace=wrap;aspect=fixed;shape=rhombus;rotation=120;fillColor=#bac8d3;strokeColor=#23445d;perimeter=rhombusPerimeter;strokeWidth=2;fillWeight=-1;hachureGap=8;fillStyle=cross-hatch;sketch=1;" parent="1" vertex="1">
          <mxGeometry x="949.2500000000001" y="794.66" width="144.46" height="86.67" as="geometry" />
        </mxCell>
        <mxCell id="WRboyPtA0cGVxALPe9MC-116" value="" style="html=1;whiteSpace=wrap;aspect=fixed;shape=rhombus;perimeter=rhombusPerimeter;strokeWidth=2;fillWeight=-1;hachureGap=8;fillStyle=cross-hatch;fillColor=none;sketch=1;strokeColor=#A9C4EB;" parent="1" vertex="1">
          <mxGeometry x="904.9000000000002" y="904.6600000000001" width="146.67" height="88" as="geometry" />
        </mxCell>
        <mxCell id="WRboyPtA0cGVxALPe9MC-117" value="" style="html=1;whiteSpace=wrap;aspect=fixed;shape=rhombus;rotation=120;fillColor=none;perimeter=rhombusPerimeter;strokeWidth=2;fillWeight=-1;hachureGap=8;fillStyle=cross-hatch;sketch=1;strokeColor=#7EA6E0;" parent="1" vertex="1">
          <mxGeometry x="872.83" y="840.0400000000002" width="144.46" height="86.67" as="geometry" />
        </mxCell>
        <mxCell id="WRboyPtA0cGVxALPe9MC-119" value="" style="html=1;whiteSpace=wrap;aspect=fixed;shape=rhombus;rotation=-120;fillColor=none;strokeColor=#7EA6E0;perimeter=rhombusPerimeter;strokeWidth=2;fillWeight=-1;hachureGap=8;fillStyle=cross-hatch;sketch=1;opacity=30;" parent="1" vertex="1">
          <mxGeometry x="951.39" y="842.6000000000001" width="140.18" height="84.11" as="geometry" />
        </mxCell>
        <mxCell id="WRboyPtA0cGVxALPe9MC-118" value="" style="html=1;whiteSpace=wrap;aspect=fixed;shape=rhombus;rotation=-120;fillColor=#fad7ac;strokeColor=#b46504;perimeter=rhombusPerimeter;strokeWidth=2;fillWeight=-1;hachureGap=8;fillStyle=cross-hatch;sketch=1;" parent="1" vertex="1">
          <mxGeometry x="1031.48" y="797.2199999999999" width="140.18" height="84.11" as="geometry" />
        </mxCell>
        <mxCell id="WRboyPtA0cGVxALPe9MC-125" value="&lt;font color=&quot;#009999&quot; size=&quot;1&quot; face=&quot;Comic Sans MS&quot;&gt;&lt;b style=&quot;&quot;&gt;Level&amp;nbsp;&lt;br&gt;&lt;/b&gt;&lt;/font&gt;" style="html=1;whiteSpace=wrap;shape=label;backgroundOutline=1;isoAngle=15;rounded=1;strokeWidth=2;fillWeight=4;hachureGap=8;hachureAngle=45;fillColor=none;sketch=1;arcSize=50;strokeColor=none;" parent="1" vertex="1">
          <mxGeometry x="1420" y="60.10000000000005" width="90" height="30" as="geometry" />
        </mxCell>
        <mxCell id="WRboyPtA0cGVxALPe9MC-126" value="" style="rounded=0;whiteSpace=wrap;html=1;" parent="1" vertex="1">
          <mxGeometry x="40" y="370.45000000000005" width="600" height="280" as="geometry" />
        </mxCell>
        <mxCell id="WRboyPtA0cGVxALPe9MC-134" value="&lt;font color=&quot;#009999&quot; size=&quot;1&quot; face=&quot;Comic Sans MS&quot;&gt;&lt;b style=&quot;&quot;&gt;Map&lt;br&gt;&lt;/b&gt;&lt;/font&gt;" style="html=1;whiteSpace=wrap;shape=label;backgroundOutline=1;isoAngle=15;rounded=1;strokeWidth=2;fillWeight=4;hachureGap=8;hachureAngle=45;fillColor=none;sketch=1;arcSize=50;strokeColor=none;" parent="1" vertex="1">
          <mxGeometry x="958.0000000000001" y="42.410000000000025" width="90" height="30" as="geometry" />
        </mxCell>
        <mxCell id="WRboyPtA0cGVxALPe9MC-135" value="&lt;font color=&quot;#009999&quot; size=&quot;1&quot; face=&quot;Comic Sans MS&quot;&gt;&lt;b style=&quot;&quot;&gt;Map (transitioning)&lt;br&gt;&lt;/b&gt;&lt;/font&gt;" style="html=1;whiteSpace=wrap;shape=label;backgroundOutline=1;isoAngle=15;rounded=1;strokeWidth=2;fillWeight=4;hachureGap=8;hachureAngle=45;fillColor=none;sketch=1;arcSize=50;strokeColor=none;" parent="1" vertex="1">
          <mxGeometry x="936.58" y="389.15999999999997" width="177.05" height="30" as="geometry" />
        </mxCell>
        <mxCell id="WRboyPtA0cGVxALPe9MC-136" value="&lt;font color=&quot;#009999&quot; size=&quot;1&quot; face=&quot;Comic Sans MS&quot;&gt;&lt;b style=&quot;&quot;&gt;Map&lt;br&gt;&lt;/b&gt;&lt;/font&gt;" style="html=1;whiteSpace=wrap;shape=label;backgroundOutline=1;isoAngle=15;rounded=1;strokeWidth=2;fillWeight=4;hachureGap=8;hachureAngle=45;fillColor=none;sketch=1;arcSize=50;strokeColor=none;" parent="1" vertex="1">
          <mxGeometry x="987.15" y="740.1" width="90" height="30" as="geometry" />
        </mxCell>
        <mxCell id="WRboyPtA0cGVxALPe9MC-137" value="&lt;font color=&quot;#009999&quot; size=&quot;1&quot; face=&quot;Comic Sans MS&quot;&gt;&lt;b style=&quot;&quot;&gt;Solve Cube &lt;br&gt;(in Progress)&lt;br&gt;&lt;/b&gt;&lt;/font&gt;" style="html=1;whiteSpace=wrap;shape=label;backgroundOutline=1;isoAngle=15;rounded=1;strokeWidth=2;fillWeight=4;hachureGap=8;hachureAngle=45;fillColor=none;sketch=1;arcSize=50;strokeColor=none;" parent="1" vertex="1">
          <mxGeometry x="1630" y="425.56" width="160" height="30" as="geometry" />
        </mxCell>
        <mxCell id="WRboyPtA0cGVxALPe9MC-138" value="&lt;font color=&quot;#009999&quot; size=&quot;1&quot; face=&quot;Comic Sans MS&quot;&gt;&lt;b style=&quot;&quot;&gt;Level&amp;nbsp;&lt;br&gt;(Finish)&lt;br&gt;&lt;/b&gt;&lt;/font&gt;" style="html=1;whiteSpace=wrap;shape=label;backgroundOutline=1;isoAngle=15;rounded=1;strokeWidth=2;fillWeight=4;hachureGap=8;hachureAngle=45;fillColor=none;sketch=1;arcSize=50;strokeColor=none;" parent="1" vertex="1">
          <mxGeometry x="1420" y="1277.0000000000002" width="90" height="30" as="geometry" />
        </mxCell>
        <mxCell id="WRboyPtA0cGVxALPe9MC-148" value="" style="shape=parallelogram;perimeter=parallelogramPerimeter;whiteSpace=wrap;html=1;fixedSize=1;size=25;rotation=-90;fillColor=#FFB570;strokeColor=#C48B56;strokeWidth=4;fillStyle=dots;" parent="1" vertex="1">
          <mxGeometry x="1714" y="1368.0000000000002" width="120" height="47.5" as="geometry" />
        </mxCell>
        <mxCell id="WRboyPtA0cGVxALPe9MC-149" value="&lt;font color=&quot;#009999&quot; size=&quot;1&quot; face=&quot;Comic Sans MS&quot;&gt;&lt;b style=&quot;&quot;&gt;Settings&lt;br&gt;&lt;/b&gt;&lt;/font&gt;" style="html=1;whiteSpace=wrap;shape=label;backgroundOutline=1;isoAngle=15;rounded=1;strokeWidth=2;fillWeight=4;hachureGap=8;hachureAngle=45;fillColor=none;sketch=1;arcSize=50;strokeColor=none;" parent="1" vertex="1">
          <mxGeometry x="290" y="380.90000000000003" width="90" height="30" as="geometry" />
        </mxCell>
        <mxCell id="WRboyPtA0cGVxALPe9MC-153" value="&lt;font color=&quot;#009999&quot; size=&quot;1&quot; face=&quot;Comic Sans MS&quot;&gt;&lt;b style=&quot;&quot;&gt;Sound&lt;/b&gt;&lt;/font&gt;" style="html=1;whiteSpace=wrap;shape=label;backgroundOutline=1;isoAngle=15;rounded=1;strokeWidth=2;fillWeight=4;hachureGap=8;hachureAngle=45;fillColor=none;sketch=1;arcSize=50;strokeColor=#0e8088;" parent="1" vertex="1">
          <mxGeometry x="80" y="461.45000000000005" width="90" height="30" as="geometry" />
        </mxCell>
        <mxCell id="WRboyPtA0cGVxALPe9MC-154" value="&lt;font color=&quot;#009999&quot; size=&quot;1&quot; face=&quot;Comic Sans MS&quot;&gt;&lt;b style=&quot;&quot;&gt;Agiltivity&lt;/b&gt;&lt;/font&gt;" style="html=1;whiteSpace=wrap;shape=label;backgroundOutline=1;isoAngle=15;rounded=1;strokeWidth=2;fillWeight=4;hachureGap=8;hachureAngle=45;fillColor=none;sketch=1;arcSize=50;strokeColor=#0e8088;" parent="1" vertex="1">
          <mxGeometry x="80" y="540.45" width="90" height="30" as="geometry" />
        </mxCell>
        <mxCell id="WRboyPtA0cGVxALPe9MC-194" style="edgeStyle=orthogonalEdgeStyle;rounded=0;orthogonalLoop=1;jettySize=auto;html=1;exitX=0.5;exitY=1;exitDx=0;exitDy=0;" parent="1" source="WRboyPtA0cGVxALPe9MC-161" target="WRboyPtA0cGVxALPe9MC-85" edge="1">
          <mxGeometry relative="1" as="geometry" />
        </mxCell>
        <mxCell id="WRboyPtA0cGVxALPe9MC-161" value="" style="rounded=0;whiteSpace=wrap;html=1;" parent="1" vertex="1">
          <mxGeometry x="1400" y="814" width="600" height="360" as="geometry" />
        </mxCell>
        <mxCell id="WRboyPtA0cGVxALPe9MC-162" value="" style="html=1;whiteSpace=wrap;shape=isoCube2;backgroundOutline=1;isoAngle=15;" parent="1" vertex="1">
          <mxGeometry x="1605" y="918" width="90" height="100" as="geometry" />
        </mxCell>
        <mxCell id="WRboyPtA0cGVxALPe9MC-163" value="" style="html=1;whiteSpace=wrap;shape=isoCube2;backgroundOutline=1;isoAngle=15;" parent="1" vertex="1">
          <mxGeometry x="1605" y="962" width="90" height="100" as="geometry" />
        </mxCell>
        <mxCell id="WRboyPtA0cGVxALPe9MC-164" value="" style="html=1;whiteSpace=wrap;shape=isoCube2;backgroundOutline=1;isoAngle=15;" parent="1" vertex="1">
          <mxGeometry x="1695" y="963" width="90" height="100" as="geometry" />
        </mxCell>
        <mxCell id="WRboyPtA0cGVxALPe9MC-165" value="" style="html=1;whiteSpace=wrap;shape=isoCube2;backgroundOutline=1;isoAngle=15;" parent="1" vertex="1">
          <mxGeometry x="1650" y="984" width="90" height="100" as="geometry" />
        </mxCell>
        <mxCell id="WRboyPtA0cGVxALPe9MC-166" value="" style="html=1;whiteSpace=wrap;shape=isoCube2;backgroundOutline=1;isoAngle=15;" parent="1" vertex="1">
          <mxGeometry x="1650" y="884" width="90" height="100" as="geometry" />
        </mxCell>
        <mxCell id="WRboyPtA0cGVxALPe9MC-167" value="" style="html=1;whiteSpace=wrap;shape=isoCube2;backgroundOutline=1;isoAngle=15;" parent="1" vertex="1">
          <mxGeometry x="1605" y="905" width="90" height="100" as="geometry" />
        </mxCell>
        <mxCell id="WRboyPtA0cGVxALPe9MC-168" value="" style="html=1;whiteSpace=wrap;shape=isoCube2;backgroundOutline=1;isoAngle=15;" parent="1" vertex="1">
          <mxGeometry x="1695" y="906" width="90" height="100" as="geometry" />
        </mxCell>
        <mxCell id="WRboyPtA0cGVxALPe9MC-169" value="" style="html=1;whiteSpace=wrap;shape=isoCube2;backgroundOutline=1;isoAngle=15;strokeColor=#000000;fillColor=default;" parent="1" vertex="1">
          <mxGeometry x="1650" y="927" width="90" height="100" as="geometry" />
        </mxCell>
        <mxCell id="WRboyPtA0cGVxALPe9MC-172" value="&lt;font face=&quot;Comic Sans MS&quot;&gt;&lt;span style=&quot;font-size: 20px;&quot;&gt;&lt;b&gt;Finish&lt;/b&gt;&lt;/span&gt;&lt;/font&gt;" style="html=1;whiteSpace=wrap;shape=label;backgroundOutline=1;isoAngle=15;rounded=1;strokeWidth=2;fillWeight=4;hachureGap=8;hachureAngle=45;fillColor=#fad9d5;sketch=1;arcSize=50;strokeColor=#ae4132;dashed=1;" parent="1" vertex="1">
          <mxGeometry x="1653.27" y="1118" width="90" height="30" as="geometry" />
        </mxCell>
        <mxCell id="WRboyPtA0cGVxALPe9MC-174" value="&lt;font color=&quot;#009999&quot; size=&quot;1&quot; face=&quot;Comic Sans MS&quot;&gt;&lt;b style=&quot;&quot;&gt;Solve Cube &lt;br&gt;(finish)&lt;br&gt;&lt;/b&gt;&lt;/font&gt;" style="html=1;whiteSpace=wrap;shape=label;backgroundOutline=1;isoAngle=15;rounded=1;strokeWidth=2;fillWeight=4;hachureGap=8;hachureAngle=45;fillColor=none;sketch=1;arcSize=50;strokeColor=none;" parent="1" vertex="1">
          <mxGeometry x="1615" y="838" width="160" height="30" as="geometry" />
        </mxCell>
        <mxCell id="WRboyPtA0cGVxALPe9MC-175" value="" style="rounded=1;whiteSpace=wrap;html=1;strokeWidth=2;fillWeight=4;hachureGap=8;hachureAngle=45;fillColor=none;sketch=1;fillStyle=hachure;" parent="1" vertex="1">
          <mxGeometry x="250" y="470.45000000000005" width="253" height="12" as="geometry" />
        </mxCell>
        <mxCell id="WRboyPtA0cGVxALPe9MC-186" value="" style="ellipse;whiteSpace=wrap;html=1;strokeWidth=2;fillWeight=2;hachureGap=8;fillColor=#000000;fillStyle=solid;sketch=1;" parent="1" vertex="1">
          <mxGeometry x="390" y="465.95000000000005" width="20" height="21" as="geometry" />
        </mxCell>
        <mxCell id="WRboyPtA0cGVxALPe9MC-190" value="" style="verticalLabelPosition=bottom;verticalAlign=top;html=1;shape=mxgraph.basic.flash;rotation=10;fillColor=#F19C99;fillStyle=dots;gradientColor=none;" parent="1" vertex="1">
          <mxGeometry x="1820" y="863" width="60" height="100" as="geometry" />
        </mxCell>
        <mxCell id="WRboyPtA0cGVxALPe9MC-191" value="" style="verticalLabelPosition=bottom;verticalAlign=top;html=1;shape=mxgraph.basic.flash;rotation=-85;fillColor=#F19C99;fillStyle=dots;gradientColor=none;" parent="1" vertex="1">
          <mxGeometry x="1500" y="978" width="60" height="100" as="geometry" />
        </mxCell>
        <mxCell id="WRboyPtA0cGVxALPe9MC-192" value="" style="verticalLabelPosition=bottom;verticalAlign=top;html=1;shape=mxgraph.basic.flash;rotation=-55;fillColor=#F19C99;fillStyle=dots;gradientColor=none;dashed=1;" parent="1" vertex="1">
          <mxGeometry x="1510" y="862" width="60" height="100" as="geometry" />
        </mxCell>
        <mxCell id="WRboyPtA0cGVxALPe9MC-193" value="" style="verticalLabelPosition=bottom;verticalAlign=top;html=1;shape=mxgraph.basic.flash;rotation=45;fillColor=#F19C99;fillStyle=dots;gradientColor=none;dashed=1;" parent="1" vertex="1">
          <mxGeometry x="1830" y="978" width="60" height="100" as="geometry" />
        </mxCell>
        <mxCell id="WRboyPtA0cGVxALPe9MC-198" value="&lt;font face=&quot;Comic Sans MS&quot;&gt;&lt;span style=&quot;font-size: 20px;&quot;&gt;&lt;b&gt;Enter&lt;/b&gt;&lt;/span&gt;&lt;/font&gt;" style="html=1;whiteSpace=wrap;shape=label;backgroundOutline=1;isoAngle=15;rounded=1;strokeWidth=2;fillWeight=4;hachureGap=8;hachureAngle=45;fillColor=#fad9d5;sketch=1;arcSize=50;strokeColor=#ae4132;dashed=1;" parent="1" vertex="1">
          <mxGeometry x="964.9200000000002" y="267.65999999999997" width="90" height="30" as="geometry" />
        </mxCell>
        <mxCell id="WRboyPtA0cGVxALPe9MC-199" value="&lt;font face=&quot;Comic Sans MS&quot;&gt;&lt;span style=&quot;font-size: 20px;&quot;&gt;&lt;b&gt;Enter&lt;/b&gt;&lt;/span&gt;&lt;/font&gt;" style="html=1;whiteSpace=wrap;shape=label;backgroundOutline=1;isoAngle=15;rounded=1;strokeWidth=2;fillWeight=4;hachureGap=8;hachureAngle=45;fillColor=#fad9d5;sketch=1;arcSize=50;strokeColor=#ae4132;dashed=1;" parent="1" vertex="1">
          <mxGeometry x="987.1500000000002" y="1002.4399999999998" width="90" height="30" as="geometry" />
        </mxCell>
        <mxCell id="WRboyPtA0cGVxALPe9MC-203" value="" style="rounded=0;whiteSpace=wrap;html=1;" parent="1" vertex="1">
          <mxGeometry x="3453.4300000000003" y="40" width="600" height="360" as="geometry" />
        </mxCell>
        <mxCell id="WRboyPtA0cGVxALPe9MC-204" value="" style="html=1;whiteSpace=wrap;shape=isoCube2;backgroundOutline=1;isoAngle=15;" parent="1" vertex="1">
          <mxGeometry x="3670" y="198" width="90" height="100" as="geometry" />
        </mxCell>
        <mxCell id="WRboyPtA0cGVxALPe9MC-205" value="" style="html=1;whiteSpace=wrap;shape=isoCube2;backgroundOutline=1;isoAngle=15;" parent="1" vertex="1">
          <mxGeometry x="3761" y="200" width="90" height="100" as="geometry" />
        </mxCell>
        <mxCell id="WRboyPtA0cGVxALPe9MC-206" value="" style="html=1;whiteSpace=wrap;shape=isoCube2;backgroundOutline=1;isoAngle=15;" parent="1" vertex="1">
          <mxGeometry x="3715" y="222" width="90" height="100" as="geometry" />
        </mxCell>
        <mxCell id="WRboyPtA0cGVxALPe9MC-207" value="" style="html=1;whiteSpace=wrap;shape=isoCube2;backgroundOutline=1;isoAngle=15;" parent="1" vertex="1">
          <mxGeometry x="3715" y="120" width="90" height="100" as="geometry" />
        </mxCell>
        <mxCell id="WRboyPtA0cGVxALPe9MC-208" value="" style="html=1;whiteSpace=wrap;shape=isoCube2;backgroundOutline=1;isoAngle=15;" parent="1" vertex="1">
          <mxGeometry x="3670" y="141" width="90" height="100" as="geometry" />
        </mxCell>
        <mxCell id="WRboyPtA0cGVxALPe9MC-209" value="" style="html=1;whiteSpace=wrap;shape=isoCube2;backgroundOutline=1;isoAngle=15;" parent="1" vertex="1">
          <mxGeometry x="3761" y="142" width="90" height="100" as="geometry" />
        </mxCell>
        <mxCell id="WRboyPtA0cGVxALPe9MC-210" value="" style="html=1;whiteSpace=wrap;shape=isoCube2;backgroundOutline=1;isoAngle=15;strokeColor=#10739e;fillColor=#b1ddf0;strokeWidth=3;dashed=1;" parent="1" vertex="1">
          <mxGeometry x="3714" y="170" width="90" height="100" as="geometry" />
        </mxCell>
        <mxCell id="WRboyPtA0cGVxALPe9MC-214" value="&lt;font color=&quot;#009999&quot; size=&quot;1&quot; face=&quot;Comic Sans MS&quot;&gt;&lt;b style=&quot;&quot;&gt;Associate&lt;br&gt;&lt;/b&gt;&lt;/font&gt;" style="html=1;whiteSpace=wrap;shape=label;backgroundOutline=1;isoAngle=15;rounded=1;strokeWidth=2;fillWeight=4;hachureGap=8;hachureAngle=45;fillColor=none;sketch=1;arcSize=50;strokeColor=none;" parent="1" vertex="1">
          <mxGeometry x="3680" y="59.1" width="160" height="30" as="geometry" />
        </mxCell>
        <mxCell id="WRboyPtA0cGVxALPe9MC-219" value="" style="endArrow=classic;html=1;rounded=1;exitX=0;exitY=0.5;exitDx=0;exitDy=0;strokeWidth=3;dashed=1;strokeColor=#10739E;" parent="1" target="WRboyPtA0cGVxALPe9MC-210" edge="1">
          <mxGeometry width="50" height="50" relative="1" as="geometry">
            <mxPoint x="3920" y="86.44000000000005" as="sourcePoint" />
            <mxPoint x="3940" y="291.44000000000005" as="targetPoint" />
            <Array as="points" />
          </mxGeometry>
        </mxCell>
        <mxCell id="WRboyPtA0cGVxALPe9MC-220" value="" style="rounded=0;whiteSpace=wrap;html=1;" parent="1" vertex="1">
          <mxGeometry x="3453.4300000000003" y="454" width="600" height="360" as="geometry" />
        </mxCell>
        <mxCell id="WRboyPtA0cGVxALPe9MC-221" value="" style="html=1;whiteSpace=wrap;shape=isoCube2;backgroundOutline=1;isoAngle=15;" parent="1" vertex="1">
          <mxGeometry x="3673.4300000000003" y="612" width="90" height="100" as="geometry" />
        </mxCell>
        <mxCell id="WRboyPtA0cGVxALPe9MC-222" value="" style="html=1;whiteSpace=wrap;shape=isoCube2;backgroundOutline=1;isoAngle=15;dashed=1;strokeWidth=3;strokeColor=#5D7BA6;fillColor=#A9C4EB;" parent="1" vertex="1">
          <mxGeometry x="3769.2400000000002" y="618.8800000000001" width="90" height="100" as="geometry" />
        </mxCell>
        <mxCell id="WRboyPtA0cGVxALPe9MC-223" value="" style="html=1;whiteSpace=wrap;shape=isoCube2;backgroundOutline=1;isoAngle=15;" parent="1" vertex="1">
          <mxGeometry x="3718.4300000000003" y="636" width="90" height="100" as="geometry" />
        </mxCell>
        <mxCell id="WRboyPtA0cGVxALPe9MC-224" value="" style="html=1;whiteSpace=wrap;shape=isoCube2;backgroundOutline=1;isoAngle=15;" parent="1" vertex="1">
          <mxGeometry x="3718.4300000000003" y="534" width="90" height="100" as="geometry" />
        </mxCell>
        <mxCell id="WRboyPtA0cGVxALPe9MC-225" value="" style="html=1;whiteSpace=wrap;shape=isoCube2;backgroundOutline=1;isoAngle=15;" parent="1" vertex="1">
          <mxGeometry x="3673.4300000000003" y="555" width="90" height="100" as="geometry" />
        </mxCell>
        <mxCell id="WRboyPtA0cGVxALPe9MC-226" value="" style="html=1;whiteSpace=wrap;shape=isoCube2;backgroundOutline=1;isoAngle=15;" parent="1" vertex="1">
          <mxGeometry x="3764.4300000000003" y="556" width="90" height="100" as="geometry" />
        </mxCell>
        <mxCell id="WRboyPtA0cGVxALPe9MC-227" value="" style="html=1;whiteSpace=wrap;shape=isoCube2;backgroundOutline=1;isoAngle=15;strokeColor=#10739e;fillColor=#B1DDF0;strokeWidth=3;dashed=1;" parent="1" vertex="1">
          <mxGeometry x="3717.4300000000003" y="584" width="90" height="100" as="geometry" />
        </mxCell>
        <mxCell id="WRboyPtA0cGVxALPe9MC-228" value="&lt;font style=&quot;font-size: 20px;&quot; face=&quot;Comic Sans MS&quot;&gt;&lt;b&gt;Swap&lt;/b&gt;&lt;/font&gt;" style="html=1;whiteSpace=wrap;shape=label;backgroundOutline=1;isoAngle=15;rounded=1;strokeWidth=2;fillWeight=4;hachureGap=8;hachureAngle=45;fillColor=#b0e3e6;sketch=1;arcSize=50;strokeColor=#0e8088;dashed=1;" parent="1" vertex="1">
          <mxGeometry x="3923.4300000000003" y="485.44000000000005" width="90" height="30" as="geometry" />
        </mxCell>
        <mxCell id="WRboyPtA0cGVxALPe9MC-229" value="&lt;font size=&quot;1&quot; face=&quot;Comic Sans MS&quot;&gt;&lt;b style=&quot;font-size: 20px;&quot;&gt;Skill 2&lt;/b&gt;&lt;/font&gt;" style="html=1;whiteSpace=wrap;shape=label;backgroundOutline=1;isoAngle=15;rounded=1;strokeWidth=2;fillWeight=4;hachureGap=8;hachureAngle=45;fillColor=#fad7ac;sketch=1;arcSize=50;strokeColor=#b46504;dashed=1;" parent="1" vertex="1">
          <mxGeometry x="3923.4300000000003" y="535.44" width="90" height="30" as="geometry" />
        </mxCell>
        <mxCell id="WRboyPtA0cGVxALPe9MC-231" value="&lt;font color=&quot;#009999&quot; size=&quot;1&quot; face=&quot;Comic Sans MS&quot;&gt;&lt;b style=&quot;&quot;&gt;Selecting the other cube&lt;br&gt;&lt;/b&gt;&lt;/font&gt;" style="html=1;whiteSpace=wrap;shape=label;backgroundOutline=1;isoAngle=15;rounded=1;strokeWidth=2;fillWeight=4;hachureGap=8;hachureAngle=45;fillColor=none;sketch=1;arcSize=50;strokeColor=none;" parent="1" vertex="1">
          <mxGeometry x="3683.4300000000003" y="475.44000000000005" width="160" height="30" as="geometry" />
        </mxCell>
        <mxCell id="WRboyPtA0cGVxALPe9MC-232" value="" style="rounded=1;whiteSpace=wrap;html=1;strokeWidth=2;fillWeight=4;hachureGap=8;hachureAngle=45;fillColor=none;sketch=1;strokeColor=default;" parent="1" vertex="1">
          <mxGeometry x="3964.9300000000003" y="622.3299999999999" width="10" height="93.11" as="geometry" />
        </mxCell>
        <mxCell id="WRboyPtA0cGVxALPe9MC-233" value="&lt;font color=&quot;#009999&quot; size=&quot;1&quot; face=&quot;Comic Sans MS&quot;&gt;&lt;b style=&quot;&quot;&gt;+&lt;br&gt;&lt;/b&gt;&lt;/font&gt;" style="html=1;whiteSpace=wrap;shape=label;backgroundOutline=1;isoAngle=15;rounded=1;strokeWidth=2;fillWeight=4;hachureGap=8;hachureAngle=45;fillColor=none;sketch=1;arcSize=50;strokeColor=default;" parent="1" vertex="1">
          <mxGeometry x="3958.1800000000003" y="582.1099999999999" width="23.5" height="30" as="geometry" />
        </mxCell>
        <mxCell id="WRboyPtA0cGVxALPe9MC-234" value="&lt;font color=&quot;#009999&quot; size=&quot;1&quot; face=&quot;Comic Sans MS&quot;&gt;&lt;b style=&quot;&quot;&gt;-&lt;br&gt;&lt;/b&gt;&lt;/font&gt;" style="html=1;whiteSpace=wrap;shape=label;backgroundOutline=1;isoAngle=15;rounded=1;strokeWidth=2;fillWeight=4;hachureGap=8;hachureAngle=45;fillColor=none;sketch=1;arcSize=50;strokeColor=default;" parent="1" vertex="1">
          <mxGeometry x="3958.1800000000003" y="734" width="23.5" height="30" as="geometry" />
        </mxCell>
        <mxCell id="WRboyPtA0cGVxALPe9MC-235" value="" style="ellipse;whiteSpace=wrap;html=1;strokeWidth=2;fillWeight=2;hachureGap=8;fillColor=#000000;fillStyle=solid;sketch=1;" parent="1" vertex="1">
          <mxGeometry x="3964.9300000000003" y="642.56" width="10" height="11.44" as="geometry" />
        </mxCell>
        <mxCell id="WRboyPtA0cGVxALPe9MC-237" value="" style="rounded=0;whiteSpace=wrap;html=1;" parent="1" vertex="1">
          <mxGeometry x="3450" y="864" width="600" height="360" as="geometry" />
        </mxCell>
        <mxCell id="WRboyPtA0cGVxALPe9MC-238" value="" style="html=1;whiteSpace=wrap;shape=isoCube2;backgroundOutline=1;isoAngle=15;" parent="1" vertex="1">
          <mxGeometry x="3670" y="1022" width="90" height="100" as="geometry" />
        </mxCell>
        <mxCell id="WRboyPtA0cGVxALPe9MC-239" value="" style="html=1;whiteSpace=wrap;shape=isoCube2;backgroundOutline=1;isoAngle=15;dashed=1;strokeWidth=3;strokeColor=#10739E;fillColor=#B1DDF0;" parent="1" vertex="1">
          <mxGeometry x="3765.8100000000004" y="1028.88" width="64.1" height="75.12" as="geometry" />
        </mxCell>
        <mxCell id="WRboyPtA0cGVxALPe9MC-240" value="" style="html=1;whiteSpace=wrap;shape=isoCube2;backgroundOutline=1;isoAngle=15;" parent="1" vertex="1">
          <mxGeometry x="3715" y="1044" width="90" height="100" as="geometry" />
        </mxCell>
        <mxCell id="WRboyPtA0cGVxALPe9MC-241" value="" style="html=1;whiteSpace=wrap;shape=isoCube2;backgroundOutline=1;isoAngle=15;" parent="1" vertex="1">
          <mxGeometry x="3715" y="944" width="90" height="100" as="geometry" />
        </mxCell>
        <mxCell id="WRboyPtA0cGVxALPe9MC-242" value="" style="html=1;whiteSpace=wrap;shape=isoCube2;backgroundOutline=1;isoAngle=15;" parent="1" vertex="1">
          <mxGeometry x="3670" y="965" width="90" height="100" as="geometry" />
        </mxCell>
        <mxCell id="WRboyPtA0cGVxALPe9MC-243" value="" style="html=1;whiteSpace=wrap;shape=isoCube2;backgroundOutline=1;isoAngle=15;" parent="1" vertex="1">
          <mxGeometry x="3760" y="966" width="90" height="100" as="geometry" />
        </mxCell>
        <mxCell id="WRboyPtA0cGVxALPe9MC-244" value="" style="html=1;whiteSpace=wrap;shape=isoCube2;backgroundOutline=1;isoAngle=15;strokeColor=#5D7BA6;fillColor=#7EA6E0;strokeWidth=3;dashed=1;" parent="1" vertex="1">
          <mxGeometry x="3739.91" y="1024" width="64.09" height="70" as="geometry" />
        </mxCell>
        <mxCell id="WRboyPtA0cGVxALPe9MC-245" value="&lt;font style=&quot;font-size: 20px;&quot; face=&quot;Comic Sans MS&quot;&gt;&lt;b&gt;Swap&lt;/b&gt;&lt;/font&gt;" style="html=1;whiteSpace=wrap;shape=label;backgroundOutline=1;isoAngle=15;rounded=1;strokeWidth=2;fillWeight=4;hachureGap=8;hachureAngle=45;fillColor=#b0e3e6;sketch=1;arcSize=50;strokeColor=#0e8088;dashed=1;" parent="1" vertex="1">
          <mxGeometry x="3920" y="895.44" width="90" height="30" as="geometry" />
        </mxCell>
        <mxCell id="WRboyPtA0cGVxALPe9MC-246" value="&lt;font size=&quot;1&quot; face=&quot;Comic Sans MS&quot;&gt;&lt;b style=&quot;font-size: 20px;&quot;&gt;Skill 2&lt;/b&gt;&lt;/font&gt;" style="html=1;whiteSpace=wrap;shape=label;backgroundOutline=1;isoAngle=15;rounded=1;strokeWidth=2;fillWeight=4;hachureGap=8;hachureAngle=45;fillColor=#fad7ac;sketch=1;arcSize=50;strokeColor=#b46504;dashed=1;" parent="1" vertex="1">
          <mxGeometry x="3920" y="945.44" width="90" height="30" as="geometry" />
        </mxCell>
        <mxCell id="WRboyPtA0cGVxALPe9MC-248" value="&lt;font color=&quot;#009999&quot; size=&quot;1&quot; face=&quot;Comic Sans MS&quot;&gt;&lt;b style=&quot;&quot;&gt;Swaping&lt;br&gt;(animation)&lt;br&gt;&lt;/b&gt;&lt;/font&gt;" style="html=1;whiteSpace=wrap;shape=label;backgroundOutline=1;isoAngle=15;rounded=1;strokeWidth=2;fillWeight=4;hachureGap=8;hachureAngle=45;fillColor=none;sketch=1;arcSize=50;strokeColor=none;" parent="1" vertex="1">
          <mxGeometry x="3680" y="885.44" width="160" height="30" as="geometry" />
        </mxCell>
        <mxCell id="WRboyPtA0cGVxALPe9MC-249" value="" style="rounded=1;whiteSpace=wrap;html=1;strokeWidth=2;fillWeight=4;hachureGap=8;hachureAngle=45;fillColor=none;sketch=1;strokeColor=default;" parent="1" vertex="1">
          <mxGeometry x="3961.5" y="1032.33" width="10" height="93.11" as="geometry" />
        </mxCell>
        <mxCell id="WRboyPtA0cGVxALPe9MC-250" value="&lt;font color=&quot;#009999&quot; size=&quot;1&quot; face=&quot;Comic Sans MS&quot;&gt;&lt;b style=&quot;&quot;&gt;+&lt;br&gt;&lt;/b&gt;&lt;/font&gt;" style="html=1;whiteSpace=wrap;shape=label;backgroundOutline=1;isoAngle=15;rounded=1;strokeWidth=2;fillWeight=4;hachureGap=8;hachureAngle=45;fillColor=none;sketch=1;arcSize=50;strokeColor=default;" parent="1" vertex="1">
          <mxGeometry x="3954.75" y="992.1099999999997" width="23.5" height="30" as="geometry" />
        </mxCell>
        <mxCell id="WRboyPtA0cGVxALPe9MC-251" value="&lt;font color=&quot;#009999&quot; size=&quot;1&quot; face=&quot;Comic Sans MS&quot;&gt;&lt;b style=&quot;&quot;&gt;-&lt;br&gt;&lt;/b&gt;&lt;/font&gt;" style="html=1;whiteSpace=wrap;shape=label;backgroundOutline=1;isoAngle=15;rounded=1;strokeWidth=2;fillWeight=4;hachureGap=8;hachureAngle=45;fillColor=none;sketch=1;arcSize=50;strokeColor=default;" parent="1" vertex="1">
          <mxGeometry x="3954.75" y="1144" width="23.5" height="30" as="geometry" />
        </mxCell>
        <mxCell id="WRboyPtA0cGVxALPe9MC-252" value="" style="ellipse;whiteSpace=wrap;html=1;strokeWidth=2;fillWeight=2;hachureGap=8;fillColor=#000000;fillStyle=solid;sketch=1;" parent="1" vertex="1">
          <mxGeometry x="3961.5" y="1052.56" width="10" height="11.44" as="geometry" />
        </mxCell>
        <mxCell id="WRboyPtA0cGVxALPe9MC-259" value="" style="rounded=0;whiteSpace=wrap;html=1;" parent="1" vertex="1">
          <mxGeometry x="2096.43" y="417.6600000000003" width="600" height="360" as="geometry" />
        </mxCell>
        <mxCell id="WRboyPtA0cGVxALPe9MC-260" value="" style="html=1;whiteSpace=wrap;shape=isoCube2;backgroundOutline=1;isoAngle=15;" parent="1" vertex="1">
          <mxGeometry x="2311.43" y="576.6600000000003" width="90" height="100" as="geometry" />
        </mxCell>
        <mxCell id="WRboyPtA0cGVxALPe9MC-261" value="" style="html=1;whiteSpace=wrap;shape=isoCube2;backgroundOutline=1;isoAngle=15;" parent="1" vertex="1">
          <mxGeometry x="2401.43" y="577.6600000000003" width="90" height="100" as="geometry" />
        </mxCell>
        <mxCell id="WRboyPtA0cGVxALPe9MC-262" value="" style="html=1;whiteSpace=wrap;shape=isoCube2;backgroundOutline=1;isoAngle=15;" parent="1" vertex="1">
          <mxGeometry x="2356.43" y="597.6600000000003" width="90" height="100" as="geometry" />
        </mxCell>
        <mxCell id="WRboyPtA0cGVxALPe9MC-263" value="" style="html=1;whiteSpace=wrap;shape=isoCube2;backgroundOutline=1;isoAngle=15;" parent="1" vertex="1">
          <mxGeometry x="2356.43" y="490.6600000000003" width="90" height="100" as="geometry" />
        </mxCell>
        <mxCell id="WRboyPtA0cGVxALPe9MC-264" value="" style="html=1;whiteSpace=wrap;shape=isoCube2;backgroundOutline=1;isoAngle=15;" parent="1" vertex="1">
          <mxGeometry x="2305.43" y="516.6600000000003" width="90" height="100" as="geometry" />
        </mxCell>
        <mxCell id="WRboyPtA0cGVxALPe9MC-265" value="" style="html=1;whiteSpace=wrap;shape=isoCube2;backgroundOutline=1;isoAngle=15;" parent="1" vertex="1">
          <mxGeometry x="2407.43" y="516.6600000000003" width="90" height="100" as="geometry" />
        </mxCell>
        <mxCell id="WRboyPtA0cGVxALPe9MC-266" value="" style="html=1;whiteSpace=wrap;shape=isoCube2;backgroundOutline=1;isoAngle=15;strokeColor=#10739e;fillColor=#b1ddf0;strokeWidth=3;dashed=1;" parent="1" vertex="1">
          <mxGeometry x="2356.43" y="547.6600000000003" width="90" height="100" as="geometry" />
        </mxCell>
        <mxCell id="WRboyPtA0cGVxALPe9MC-270" value="&lt;font color=&quot;#009999&quot; size=&quot;1&quot; face=&quot;Comic Sans MS&quot;&gt;&lt;b style=&quot;&quot;&gt;Swipe&lt;br&gt;&lt;/b&gt;&lt;/font&gt;" style="html=1;whiteSpace=wrap;shape=label;backgroundOutline=1;isoAngle=15;rounded=1;strokeWidth=2;fillWeight=4;hachureGap=8;hachureAngle=45;fillColor=none;sketch=1;arcSize=50;strokeColor=none;" parent="1" vertex="1">
          <mxGeometry x="2326.43" y="439.10000000000036" width="160" height="30" as="geometry" />
        </mxCell>
        <mxCell id="WRboyPtA0cGVxALPe9MC-271" value="" style="rounded=1;whiteSpace=wrap;html=1;strokeWidth=2;fillWeight=4;hachureGap=8;hachureAngle=45;fillColor=none;sketch=1;strokeColor=default;" parent="1" vertex="1">
          <mxGeometry x="2607.93" y="585.9900000000002" width="10" height="93.11" as="geometry" />
        </mxCell>
        <mxCell id="WRboyPtA0cGVxALPe9MC-272" value="&lt;font color=&quot;#009999&quot; size=&quot;1&quot; face=&quot;Comic Sans MS&quot;&gt;&lt;b style=&quot;&quot;&gt;+&lt;br&gt;&lt;/b&gt;&lt;/font&gt;" style="html=1;whiteSpace=wrap;shape=label;backgroundOutline=1;isoAngle=15;rounded=1;strokeWidth=2;fillWeight=4;hachureGap=8;hachureAngle=45;fillColor=none;sketch=1;arcSize=50;strokeColor=default;" parent="1" vertex="1">
          <mxGeometry x="2601.18" y="545.77" width="23.5" height="30" as="geometry" />
        </mxCell>
        <mxCell id="WRboyPtA0cGVxALPe9MC-273" value="&lt;font color=&quot;#009999&quot; size=&quot;1&quot; face=&quot;Comic Sans MS&quot;&gt;&lt;b style=&quot;&quot;&gt;-&lt;br&gt;&lt;/b&gt;&lt;/font&gt;" style="html=1;whiteSpace=wrap;shape=label;backgroundOutline=1;isoAngle=15;rounded=1;strokeWidth=2;fillWeight=4;hachureGap=8;hachureAngle=45;fillColor=none;sketch=1;arcSize=50;strokeColor=default;" parent="1" vertex="1">
          <mxGeometry x="2601.18" y="697.6600000000001" width="23.5" height="30" as="geometry" />
        </mxCell>
        <mxCell id="WRboyPtA0cGVxALPe9MC-274" value="" style="ellipse;whiteSpace=wrap;html=1;strokeWidth=2;fillWeight=2;hachureGap=8;fillColor=#000000;fillStyle=solid;sketch=1;" parent="1" vertex="1">
          <mxGeometry x="2607.93" y="606.2200000000003" width="10" height="11.44" as="geometry" />
        </mxCell>
        <mxCell id="WRboyPtA0cGVxALPe9MC-275" value="" style="rounded=0;whiteSpace=wrap;html=1;" parent="1" vertex="1">
          <mxGeometry x="2096.43" y="37.66000000000005" width="600" height="360" as="geometry" />
        </mxCell>
        <mxCell id="WRboyPtA0cGVxALPe9MC-276" value="" style="html=1;whiteSpace=wrap;shape=isoCube2;backgroundOutline=1;isoAngle=15;" parent="1" vertex="1">
          <mxGeometry x="2311.43" y="195.66000000000028" width="90" height="100" as="geometry" />
        </mxCell>
        <mxCell id="WRboyPtA0cGVxALPe9MC-277" value="" style="html=1;whiteSpace=wrap;shape=isoCube2;backgroundOutline=1;isoAngle=15;" parent="1" vertex="1">
          <mxGeometry x="2401.43" y="196.66000000000028" width="90" height="100" as="geometry" />
        </mxCell>
        <mxCell id="WRboyPtA0cGVxALPe9MC-278" value="" style="html=1;whiteSpace=wrap;shape=isoCube2;backgroundOutline=1;isoAngle=15;" parent="1" vertex="1">
          <mxGeometry x="2356.43" y="217.66000000000028" width="90" height="100" as="geometry" />
        </mxCell>
        <mxCell id="WRboyPtA0cGVxALPe9MC-279" value="" style="html=1;whiteSpace=wrap;shape=isoCube2;backgroundOutline=1;isoAngle=15;" parent="1" vertex="1">
          <mxGeometry x="2357.43" y="117.66000000000005" width="90" height="100" as="geometry" />
        </mxCell>
        <mxCell id="WRboyPtA0cGVxALPe9MC-280" value="" style="html=1;whiteSpace=wrap;shape=isoCube2;backgroundOutline=1;isoAngle=15;" parent="1" vertex="1">
          <mxGeometry x="2311.43" y="139.66000000000005" width="90" height="100" as="geometry" />
        </mxCell>
        <mxCell id="WRboyPtA0cGVxALPe9MC-281" value="" style="html=1;whiteSpace=wrap;shape=isoCube2;backgroundOutline=1;isoAngle=15;" parent="1" vertex="1">
          <mxGeometry x="2402.43" y="139.66000000000005" width="90" height="100" as="geometry" />
        </mxCell>
        <mxCell id="WRboyPtA0cGVxALPe9MC-282" value="" style="html=1;whiteSpace=wrap;shape=isoCube2;backgroundOutline=1;isoAngle=15;strokeColor=#10739e;fillColor=#b1ddf0;strokeWidth=3;dashed=1;" parent="1" vertex="1">
          <mxGeometry x="2356.43" y="167.66000000000005" width="90" height="100" as="geometry" />
        </mxCell>
        <mxCell id="WRboyPtA0cGVxALPe9MC-286" value="&lt;font color=&quot;#009999&quot; size=&quot;1&quot; face=&quot;Comic Sans MS&quot;&gt;&lt;b style=&quot;&quot;&gt;Selet Cube&lt;br&gt;&lt;/b&gt;&lt;/font&gt;" style="html=1;whiteSpace=wrap;shape=label;backgroundOutline=1;isoAngle=15;rounded=1;strokeWidth=2;fillWeight=4;hachureGap=8;hachureAngle=45;fillColor=none;sketch=1;arcSize=50;strokeColor=none;" parent="1" vertex="1">
          <mxGeometry x="2326.43" y="59.10000000000011" width="160" height="30" as="geometry" />
        </mxCell>
        <mxCell id="WRboyPtA0cGVxALPe9MC-287" value="" style="rounded=1;whiteSpace=wrap;html=1;strokeWidth=2;fillWeight=4;hachureGap=8;hachureAngle=45;fillColor=none;sketch=1;strokeColor=default;" parent="1" vertex="1">
          <mxGeometry x="2607.93" y="205.9900000000002" width="10" height="93.11" as="geometry" />
        </mxCell>
        <mxCell id="WRboyPtA0cGVxALPe9MC-288" value="&lt;font color=&quot;#009999&quot; size=&quot;1&quot; face=&quot;Comic Sans MS&quot;&gt;&lt;b style=&quot;&quot;&gt;+&lt;br&gt;&lt;/b&gt;&lt;/font&gt;" style="html=1;whiteSpace=wrap;shape=label;backgroundOutline=1;isoAngle=15;rounded=1;strokeWidth=2;fillWeight=4;hachureGap=8;hachureAngle=45;fillColor=none;sketch=1;arcSize=50;strokeColor=default;" parent="1" vertex="1">
          <mxGeometry x="2601.18" y="165.76999999999995" width="23.5" height="30" as="geometry" />
        </mxCell>
        <mxCell id="WRboyPtA0cGVxALPe9MC-289" value="&lt;font color=&quot;#009999&quot; size=&quot;1&quot; face=&quot;Comic Sans MS&quot;&gt;&lt;b style=&quot;&quot;&gt;-&lt;br&gt;&lt;/b&gt;&lt;/font&gt;" style="html=1;whiteSpace=wrap;shape=label;backgroundOutline=1;isoAngle=15;rounded=1;strokeWidth=2;fillWeight=4;hachureGap=8;hachureAngle=45;fillColor=none;sketch=1;arcSize=50;strokeColor=default;" parent="1" vertex="1">
          <mxGeometry x="2601.18" y="317.6600000000003" width="23.5" height="30" as="geometry" />
        </mxCell>
        <mxCell id="WRboyPtA0cGVxALPe9MC-290" value="" style="ellipse;whiteSpace=wrap;html=1;strokeWidth=2;fillWeight=2;hachureGap=8;fillColor=#000000;fillStyle=solid;sketch=1;" parent="1" vertex="1">
          <mxGeometry x="2607.93" y="226.22000000000023" width="10" height="11.44" as="geometry" />
        </mxCell>
        <mxCell id="WRboyPtA0cGVxALPe9MC-306" value="" style="rounded=0;whiteSpace=wrap;html=1;" parent="1" vertex="1">
          <mxGeometry x="2096.43" y="814" width="600" height="360" as="geometry" />
        </mxCell>
        <mxCell id="WRboyPtA0cGVxALPe9MC-307" value="" style="html=1;whiteSpace=wrap;shape=isoCube2;backgroundOutline=1;isoAngle=15;" parent="1" vertex="1">
          <mxGeometry x="2310.43" y="974.0000000000002" width="90" height="100" as="geometry" />
        </mxCell>
        <mxCell id="WRboyPtA0cGVxALPe9MC-308" value="" style="html=1;whiteSpace=wrap;shape=isoCube2;backgroundOutline=1;isoAngle=15;" parent="1" vertex="1">
          <mxGeometry x="2402.43" y="974.0000000000002" width="90" height="100" as="geometry" />
        </mxCell>
        <mxCell id="WRboyPtA0cGVxALPe9MC-309" value="" style="html=1;whiteSpace=wrap;shape=isoCube2;backgroundOutline=1;isoAngle=15;" parent="1" vertex="1">
          <mxGeometry x="2356.43" y="996.0000000000002" width="90" height="100" as="geometry" />
        </mxCell>
        <mxCell id="WRboyPtA0cGVxALPe9MC-310" value="" style="html=1;whiteSpace=wrap;shape=isoCube2;backgroundOutline=1;isoAngle=15;" parent="1" vertex="1">
          <mxGeometry x="2356.43" y="894.0000000000002" width="90" height="100" as="geometry" />
        </mxCell>
        <mxCell id="WRboyPtA0cGVxALPe9MC-311" value="" style="html=1;whiteSpace=wrap;shape=isoCube2;backgroundOutline=1;isoAngle=15;fillColor=#B1DDF0;strokeColor=#10739E;strokeWidth=3;dashed=1;" parent="1" vertex="1">
          <mxGeometry x="2310.43" y="916.0000000000002" width="90" height="100" as="geometry" />
        </mxCell>
        <mxCell id="WRboyPtA0cGVxALPe9MC-312" value="" style="html=1;whiteSpace=wrap;shape=isoCube2;backgroundOutline=1;isoAngle=15;" parent="1" vertex="1">
          <mxGeometry x="2402.43" y="916.0000000000002" width="90" height="100" as="geometry" />
        </mxCell>
        <mxCell id="WRboyPtA0cGVxALPe9MC-317" value="&lt;font color=&quot;#009999&quot; size=&quot;1&quot; face=&quot;Comic Sans MS&quot;&gt;&lt;b style=&quot;&quot;&gt;Swipe Finish&lt;br&gt;&lt;/b&gt;&lt;/font&gt;" style="html=1;whiteSpace=wrap;shape=label;backgroundOutline=1;isoAngle=15;rounded=1;strokeWidth=2;fillWeight=4;hachureGap=8;hachureAngle=45;fillColor=none;sketch=1;arcSize=50;strokeColor=none;" parent="1" vertex="1">
          <mxGeometry x="2326.43" y="835.4399999999998" width="160" height="30" as="geometry" />
        </mxCell>
        <mxCell id="WRboyPtA0cGVxALPe9MC-318" value="" style="rounded=1;whiteSpace=wrap;html=1;strokeWidth=2;fillWeight=4;hachureGap=8;hachureAngle=45;fillColor=none;sketch=1;strokeColor=default;" parent="1" vertex="1">
          <mxGeometry x="2607.93" y="982.3300000000002" width="10" height="93.11" as="geometry" />
        </mxCell>
        <mxCell id="WRboyPtA0cGVxALPe9MC-319" value="&lt;font color=&quot;#009999&quot; size=&quot;1&quot; face=&quot;Comic Sans MS&quot;&gt;&lt;b style=&quot;&quot;&gt;+&lt;br&gt;&lt;/b&gt;&lt;/font&gt;" style="html=1;whiteSpace=wrap;shape=label;backgroundOutline=1;isoAngle=15;rounded=1;strokeWidth=2;fillWeight=4;hachureGap=8;hachureAngle=45;fillColor=none;sketch=1;arcSize=50;strokeColor=default;" parent="1" vertex="1">
          <mxGeometry x="2601.18" y="942.1099999999999" width="23.5" height="30" as="geometry" />
        </mxCell>
        <mxCell id="WRboyPtA0cGVxALPe9MC-320" value="&lt;font color=&quot;#009999&quot; size=&quot;1&quot; face=&quot;Comic Sans MS&quot;&gt;&lt;b style=&quot;&quot;&gt;-&lt;br&gt;&lt;/b&gt;&lt;/font&gt;" style="html=1;whiteSpace=wrap;shape=label;backgroundOutline=1;isoAngle=15;rounded=1;strokeWidth=2;fillWeight=4;hachureGap=8;hachureAngle=45;fillColor=none;sketch=1;arcSize=50;strokeColor=default;" parent="1" vertex="1">
          <mxGeometry x="2601.18" y="1094.0000000000002" width="23.5" height="30" as="geometry" />
        </mxCell>
        <mxCell id="WRboyPtA0cGVxALPe9MC-321" value="" style="ellipse;whiteSpace=wrap;html=1;strokeWidth=2;fillWeight=2;hachureGap=8;fillColor=#000000;fillStyle=solid;sketch=1;" parent="1" vertex="1">
          <mxGeometry x="2607.93" y="1002.5599999999997" width="10" height="11.44" as="geometry" />
        </mxCell>
        <mxCell id="WRboyPtA0cGVxALPe9MC-322" value="" style="html=1;whiteSpace=wrap;shape=isoCube2;backgroundOutline=1;isoAngle=15;" parent="1" vertex="1">
          <mxGeometry x="2356.43" y="937.8900000000001" width="90" height="100" as="geometry" />
        </mxCell>
        <mxCell id="WRboyPtA0cGVxALPe9MC-323" value="" style="rounded=0;whiteSpace=wrap;html=1;" parent="1" vertex="1">
          <mxGeometry x="40" y="680" width="600" height="280" as="geometry" />
        </mxCell>
        <mxCell id="WRboyPtA0cGVxALPe9MC-324" value="&lt;font color=&quot;#009999&quot; size=&quot;1&quot; face=&quot;Comic Sans MS&quot;&gt;&lt;b style=&quot;&quot;&gt;Credits&lt;br&gt;&lt;/b&gt;&lt;/font&gt;" style="html=1;whiteSpace=wrap;shape=label;backgroundOutline=1;isoAngle=15;rounded=1;strokeWidth=2;fillWeight=4;hachureGap=8;hachureAngle=45;fillColor=none;sketch=1;arcSize=50;strokeColor=none;" parent="1" vertex="1">
          <mxGeometry x="300" y="690" width="90" height="30" as="geometry" />
        </mxCell>
        <mxCell id="WRboyPtA0cGVxALPe9MC-325" value="&lt;font color=&quot;#009999&quot; size=&quot;1&quot; face=&quot;Comic Sans MS&quot;&gt;&lt;b style=&quot;&quot;&gt;Programmer&lt;/b&gt;&lt;/font&gt;" style="html=1;whiteSpace=wrap;shape=label;backgroundOutline=1;isoAngle=15;rounded=1;strokeWidth=2;fillWeight=4;hachureGap=8;hachureAngle=45;fillColor=none;sketch=1;arcSize=50;strokeColor=#0e8088;" parent="1" vertex="1">
          <mxGeometry x="110" y="810" width="140" height="30" as="geometry" />
        </mxCell>
        <mxCell id="WRboyPtA0cGVxALPe9MC-326" value="&lt;font color=&quot;#009999&quot; size=&quot;1&quot; face=&quot;Comic Sans MS&quot;&gt;&lt;b style=&quot;&quot;&gt;Project Manager&lt;/b&gt;&lt;/font&gt;" style="html=1;whiteSpace=wrap;shape=label;backgroundOutline=1;isoAngle=15;rounded=1;strokeWidth=2;fillWeight=4;hachureGap=8;hachureAngle=45;fillColor=none;sketch=1;arcSize=50;strokeColor=#0e8088;" parent="1" vertex="1">
          <mxGeometry x="430" y="806" width="160" height="30" as="geometry" />
        </mxCell>
        <mxCell id="WRboyPtA0cGVxALPe9MC-331" value="&lt;font color=&quot;#009999&quot; size=&quot;1&quot; face=&quot;Comic Sans MS&quot;&gt;&lt;b style=&quot;&quot;&gt;Artist&lt;/b&gt;&lt;/font&gt;" style="html=1;whiteSpace=wrap;shape=label;backgroundOutline=1;isoAngle=15;rounded=1;strokeWidth=2;fillWeight=4;hachureGap=8;hachureAngle=45;fillColor=none;sketch=1;arcSize=50;strokeColor=#0e8088;" parent="1" vertex="1">
          <mxGeometry x="110" y="735" width="140" height="30" as="geometry" />
        </mxCell>
        <mxCell id="WRboyPtA0cGVxALPe9MC-333" value="&lt;font color=&quot;#009999&quot; size=&quot;1&quot; face=&quot;Comic Sans MS&quot;&gt;&lt;b style=&quot;&quot;&gt;Designer&lt;/b&gt;&lt;/font&gt;" style="html=1;whiteSpace=wrap;shape=label;backgroundOutline=1;isoAngle=15;rounded=1;strokeWidth=2;fillWeight=4;hachureGap=8;hachureAngle=45;fillColor=none;sketch=1;arcSize=50;strokeColor=#0e8088;" parent="1" vertex="1">
          <mxGeometry x="430" y="731" width="160" height="30" as="geometry" />
        </mxCell>
        <mxCell id="WRboyPtA0cGVxALPe9MC-334" value="&lt;font color=&quot;#009999&quot; size=&quot;1&quot; face=&quot;Comic Sans MS&quot;&gt;&lt;b style=&quot;&quot;&gt;Sound Designer&lt;/b&gt;&lt;/font&gt;" style="html=1;whiteSpace=wrap;shape=label;backgroundOutline=1;isoAngle=15;rounded=1;strokeWidth=2;fillWeight=4;hachureGap=8;hachureAngle=45;fillColor=none;sketch=1;arcSize=50;strokeColor=#0e8088;" parent="1" vertex="1">
          <mxGeometry x="104" y="885" width="160" height="30" as="geometry" />
        </mxCell>
        <mxCell id="WRboyPtA0cGVxALPe9MC-335" value="&lt;font color=&quot;#009999&quot; size=&quot;1&quot; face=&quot;Comic Sans MS&quot;&gt;&lt;b style=&quot;&quot;&gt;AQin &amp;amp; Dafa&lt;/b&gt;&lt;/font&gt;" style="html=1;whiteSpace=wrap;shape=label;backgroundOutline=1;isoAngle=15;rounded=1;strokeWidth=2;fillWeight=4;hachureGap=8;hachureAngle=45;fillColor=none;sketch=1;arcSize=50;strokeColor=none;" parent="1" vertex="1">
          <mxGeometry x="110" y="771.5" width="140" height="30" as="geometry" />
        </mxCell>
        <mxCell id="WRboyPtA0cGVxALPe9MC-336" value="&lt;font color=&quot;#009999&quot; size=&quot;1&quot; face=&quot;Comic Sans MS&quot;&gt;&lt;b style=&quot;&quot;&gt;Heaven&lt;/b&gt;&lt;/font&gt;" style="html=1;whiteSpace=wrap;shape=label;backgroundOutline=1;isoAngle=15;rounded=1;strokeWidth=2;fillWeight=4;hachureGap=8;hachureAngle=45;fillColor=none;sketch=1;arcSize=50;strokeColor=none;" parent="1" vertex="1">
          <mxGeometry x="110" y="843.3399999999999" width="140" height="30" as="geometry" />
        </mxCell>
        <mxCell id="WRboyPtA0cGVxALPe9MC-337" value="&lt;font size=&quot;1&quot; face=&quot;Comic Sans MS&quot; color=&quot;#009999&quot;&gt;&lt;b&gt;Han&lt;/b&gt;&lt;/font&gt;" style="html=1;whiteSpace=wrap;shape=label;backgroundOutline=1;isoAngle=15;rounded=1;strokeWidth=2;fillWeight=4;hachureGap=8;hachureAngle=45;fillColor=none;sketch=1;arcSize=50;strokeColor=none;" parent="1" vertex="1">
          <mxGeometry x="440" y="771.5" width="140" height="30" as="geometry" />
        </mxCell>
        <mxCell id="WRboyPtA0cGVxALPe9MC-338" value="&lt;font color=&quot;#009999&quot; size=&quot;1&quot; face=&quot;Comic Sans MS&quot;&gt;&lt;b style=&quot;&quot;&gt;Animator&lt;/b&gt;&lt;/font&gt;" style="html=1;whiteSpace=wrap;shape=label;backgroundOutline=1;isoAngle=15;rounded=1;strokeWidth=2;fillWeight=4;hachureGap=8;hachureAngle=45;fillColor=none;sketch=1;arcSize=50;strokeColor=#0e8088;" parent="1" vertex="1">
          <mxGeometry x="430" y="883" width="160" height="30" as="geometry" />
        </mxCell>
        <mxCell id="WRboyPtA0cGVxALPe9MC-339" value="&lt;font color=&quot;#009999&quot; size=&quot;1&quot; face=&quot;Comic Sans MS&quot;&gt;&lt;b style=&quot;&quot;&gt;Sera&lt;/b&gt;&lt;/font&gt;" style="html=1;whiteSpace=wrap;shape=label;backgroundOutline=1;isoAngle=15;rounded=1;strokeWidth=2;fillWeight=4;hachureGap=8;hachureAngle=45;fillColor=none;sketch=1;arcSize=50;strokeColor=none;" parent="1" vertex="1">
          <mxGeometry x="110" y="915" width="140" height="30" as="geometry" />
        </mxCell>
        <mxCell id="WRboyPtA0cGVxALPe9MC-340" value="&lt;div style=&quot;text-align: center;&quot;&gt;&lt;span style=&quot;background-color: initial;&quot;&gt;&lt;font size=&quot;1&quot; face=&quot;Comic Sans MS&quot; color=&quot;#009999&quot;&gt;&lt;b&gt;Julius&lt;/b&gt;&lt;/font&gt;&lt;/span&gt;&lt;/div&gt;" style="text;whiteSpace=wrap;html=1;" parent="1" vertex="1">
          <mxGeometry x="480" y="845" width="60" height="30" as="geometry" />
        </mxCell>
        <mxCell id="WRboyPtA0cGVxALPe9MC-341" value="&lt;div style=&quot;text-align: center;&quot;&gt;&lt;span style=&quot;background-color: initial;&quot;&gt;&lt;font size=&quot;1&quot; face=&quot;Comic Sans MS&quot; color=&quot;#009999&quot;&gt;&lt;b&gt;？？？&lt;/b&gt;&lt;/font&gt;&lt;/span&gt;&lt;/div&gt;" style="text;whiteSpace=wrap;html=1;" parent="1" vertex="1">
          <mxGeometry x="485" y="915" width="60" height="30" as="geometry" />
        </mxCell>
        <mxCell id="WRboyPtA0cGVxALPe9MC-343" value="" style="rounded=0;whiteSpace=wrap;html=1;" parent="1" vertex="1">
          <mxGeometry x="3450" y="1264" width="600" height="360" as="geometry" />
        </mxCell>
        <mxCell id="WRboyPtA0cGVxALPe9MC-344" value="" style="html=1;whiteSpace=wrap;shape=isoCube2;backgroundOutline=1;isoAngle=15;" parent="1" vertex="1">
          <mxGeometry x="3670" y="1422" width="90" height="100" as="geometry" />
        </mxCell>
        <mxCell id="WRboyPtA0cGVxALPe9MC-345" value="" style="html=1;whiteSpace=wrap;shape=isoCube2;backgroundOutline=1;isoAngle=15;dashed=1;strokeWidth=3;strokeColor=#10739E;fillColor=#B1DDF0;" parent="1" vertex="1">
          <mxGeometry x="3765.8100000000004" y="1428.88" width="90" height="100" as="geometry" />
        </mxCell>
        <mxCell id="WRboyPtA0cGVxALPe9MC-346" value="" style="html=1;whiteSpace=wrap;shape=isoCube2;backgroundOutline=1;isoAngle=15;" parent="1" vertex="1">
          <mxGeometry x="3715" y="1446" width="90" height="100" as="geometry" />
        </mxCell>
        <mxCell id="WRboyPtA0cGVxALPe9MC-347" value="" style="html=1;whiteSpace=wrap;shape=isoCube2;backgroundOutline=1;isoAngle=15;" parent="1" vertex="1">
          <mxGeometry x="3715" y="1344" width="90" height="100" as="geometry" />
        </mxCell>
        <mxCell id="WRboyPtA0cGVxALPe9MC-348" value="" style="html=1;whiteSpace=wrap;shape=isoCube2;backgroundOutline=1;isoAngle=15;" parent="1" vertex="1">
          <mxGeometry x="3670" y="1365" width="90" height="100" as="geometry" />
        </mxCell>
        <mxCell id="WRboyPtA0cGVxALPe9MC-349" value="" style="html=1;whiteSpace=wrap;shape=isoCube2;backgroundOutline=1;isoAngle=15;" parent="1" vertex="1">
          <mxGeometry x="3761" y="1366" width="90" height="100" as="geometry" />
        </mxCell>
        <mxCell id="WRboyPtA0cGVxALPe9MC-350" value="" style="html=1;whiteSpace=wrap;shape=isoCube2;backgroundOutline=1;isoAngle=15;strokeColor=#5D7BA6;fillColor=#7EA6E0;strokeWidth=3;dashed=1;" parent="1" vertex="1">
          <mxGeometry x="3714" y="1394" width="90" height="100" as="geometry" />
        </mxCell>
        <mxCell id="WRboyPtA0cGVxALPe9MC-351" value="&lt;font style=&quot;font-size: 20px;&quot; face=&quot;Comic Sans MS&quot;&gt;&lt;b&gt;Swap&lt;/b&gt;&lt;/font&gt;" style="html=1;whiteSpace=wrap;shape=label;backgroundOutline=1;isoAngle=15;rounded=1;strokeWidth=2;fillWeight=4;hachureGap=8;hachureAngle=45;fillColor=#b0e3e6;sketch=1;arcSize=50;strokeColor=#0e8088;dashed=1;" parent="1" vertex="1">
          <mxGeometry x="3920" y="1295.44" width="90" height="30" as="geometry" />
        </mxCell>
        <mxCell id="WRboyPtA0cGVxALPe9MC-352" value="&lt;font size=&quot;1&quot; face=&quot;Comic Sans MS&quot;&gt;&lt;b style=&quot;font-size: 20px;&quot;&gt;Skill 2&lt;/b&gt;&lt;/font&gt;" style="html=1;whiteSpace=wrap;shape=label;backgroundOutline=1;isoAngle=15;rounded=1;strokeWidth=2;fillWeight=4;hachureGap=8;hachureAngle=45;fillColor=#fad7ac;sketch=1;arcSize=50;strokeColor=#b46504;dashed=1;" parent="1" vertex="1">
          <mxGeometry x="3920" y="1345.44" width="90" height="30" as="geometry" />
        </mxCell>
        <mxCell id="WRboyPtA0cGVxALPe9MC-354" value="&lt;font color=&quot;#009999&quot; size=&quot;1&quot; face=&quot;Comic Sans MS&quot;&gt;&lt;b style=&quot;&quot;&gt;Swap Finished&lt;br&gt;&lt;/b&gt;&lt;/font&gt;" style="html=1;whiteSpace=wrap;shape=label;backgroundOutline=1;isoAngle=15;rounded=1;strokeWidth=2;fillWeight=4;hachureGap=8;hachureAngle=45;fillColor=none;sketch=1;arcSize=50;strokeColor=none;" parent="1" vertex="1">
          <mxGeometry x="3680" y="1285.44" width="160" height="30" as="geometry" />
        </mxCell>
        <mxCell id="WRboyPtA0cGVxALPe9MC-355" value="" style="rounded=1;whiteSpace=wrap;html=1;strokeWidth=2;fillWeight=4;hachureGap=8;hachureAngle=45;fillColor=none;sketch=1;strokeColor=default;" parent="1" vertex="1">
          <mxGeometry x="3961.5" y="1432.33" width="10" height="93.11" as="geometry" />
        </mxCell>
        <mxCell id="WRboyPtA0cGVxALPe9MC-356" value="&lt;font color=&quot;#009999&quot; size=&quot;1&quot; face=&quot;Comic Sans MS&quot;&gt;&lt;b style=&quot;&quot;&gt;+&lt;br&gt;&lt;/b&gt;&lt;/font&gt;" style="html=1;whiteSpace=wrap;shape=label;backgroundOutline=1;isoAngle=15;rounded=1;strokeWidth=2;fillWeight=4;hachureGap=8;hachureAngle=45;fillColor=none;sketch=1;arcSize=50;strokeColor=default;" parent="1" vertex="1">
          <mxGeometry x="3954.75" y="1392.1099999999997" width="23.5" height="30" as="geometry" />
        </mxCell>
        <mxCell id="WRboyPtA0cGVxALPe9MC-357" value="&lt;font color=&quot;#009999&quot; size=&quot;1&quot; face=&quot;Comic Sans MS&quot;&gt;&lt;b style=&quot;&quot;&gt;-&lt;br&gt;&lt;/b&gt;&lt;/font&gt;" style="html=1;whiteSpace=wrap;shape=label;backgroundOutline=1;isoAngle=15;rounded=1;strokeWidth=2;fillWeight=4;hachureGap=8;hachureAngle=45;fillColor=none;sketch=1;arcSize=50;strokeColor=default;" parent="1" vertex="1">
          <mxGeometry x="3954.75" y="1544" width="23.5" height="30" as="geometry" />
        </mxCell>
        <mxCell id="WRboyPtA0cGVxALPe9MC-358" value="" style="ellipse;whiteSpace=wrap;html=1;strokeWidth=2;fillWeight=2;hachureGap=8;fillColor=#000000;fillStyle=solid;sketch=1;" parent="1" vertex="1">
          <mxGeometry x="3961.5" y="1452.56" width="10" height="11.44" as="geometry" />
        </mxCell>
        <mxCell id="WRboyPtA0cGVxALPe9MC-359" value="" style="rounded=0;whiteSpace=wrap;html=1;" parent="1" vertex="1">
          <mxGeometry x="3450" y="1664" width="600" height="360" as="geometry" />
        </mxCell>
        <mxCell id="WRboyPtA0cGVxALPe9MC-360" value="" style="html=1;whiteSpace=wrap;shape=isoCube2;backgroundOutline=1;isoAngle=15;" parent="1" vertex="1">
          <mxGeometry x="3670" y="1822" width="90" height="100" as="geometry" />
        </mxCell>
        <mxCell id="WRboyPtA0cGVxALPe9MC-361" value="" style="html=1;whiteSpace=wrap;shape=isoCube2;backgroundOutline=1;isoAngle=15;strokeWidth=1;strokeColor=#000000;fillColor=#FFFFFF;" parent="1" vertex="1">
          <mxGeometry x="3759.8100000000004" y="1821.88" width="90" height="100" as="geometry" />
        </mxCell>
        <mxCell id="WRboyPtA0cGVxALPe9MC-362" value="" style="html=1;whiteSpace=wrap;shape=isoCube2;backgroundOutline=1;isoAngle=15;" parent="1" vertex="1">
          <mxGeometry x="3715" y="1844" width="90" height="100" as="geometry" />
        </mxCell>
        <mxCell id="WRboyPtA0cGVxALPe9MC-363" value="" style="html=1;whiteSpace=wrap;shape=isoCube2;backgroundOutline=1;isoAngle=15;" parent="1" vertex="1">
          <mxGeometry x="3715" y="1744" width="90" height="100" as="geometry" />
        </mxCell>
        <mxCell id="WRboyPtA0cGVxALPe9MC-364" value="" style="html=1;whiteSpace=wrap;shape=isoCube2;backgroundOutline=1;isoAngle=15;" parent="1" vertex="1">
          <mxGeometry x="3670" y="1765" width="90" height="100" as="geometry" />
        </mxCell>
        <mxCell id="WRboyPtA0cGVxALPe9MC-365" value="" style="html=1;whiteSpace=wrap;shape=isoCube2;backgroundOutline=1;isoAngle=15;" parent="1" vertex="1">
          <mxGeometry x="3760" y="1765" width="90" height="100" as="geometry" />
        </mxCell>
        <mxCell id="WRboyPtA0cGVxALPe9MC-366" value="" style="html=1;whiteSpace=wrap;shape=isoCube2;backgroundOutline=1;isoAngle=15;strokeColor=#000000;fillColor=#FFFFFF;strokeWidth=1;" parent="1" vertex="1">
          <mxGeometry x="3715" y="1787" width="90" height="100" as="geometry" />
        </mxCell>
        <mxCell id="WRboyPtA0cGVxALPe9MC-367" value="&lt;font style=&quot;font-size: 20px;&quot; face=&quot;Comic Sans MS&quot;&gt;&lt;b&gt;Swap&lt;/b&gt;&lt;/font&gt;" style="html=1;whiteSpace=wrap;shape=label;backgroundOutline=1;isoAngle=15;rounded=1;strokeWidth=2;fillWeight=4;hachureGap=8;hachureAngle=45;fillColor=#b0e3e6;sketch=1;arcSize=50;strokeColor=#0e8088;dashed=1;" parent="1" vertex="1">
          <mxGeometry x="3920" y="1695.44" width="90" height="30" as="geometry" />
        </mxCell>
        <mxCell id="WRboyPtA0cGVxALPe9MC-368" value="&lt;font size=&quot;1&quot; face=&quot;Comic Sans MS&quot;&gt;&lt;b style=&quot;font-size: 20px;&quot;&gt;Skill 2&lt;/b&gt;&lt;/font&gt;" style="html=1;whiteSpace=wrap;shape=label;backgroundOutline=1;isoAngle=15;rounded=1;strokeWidth=2;fillWeight=4;hachureGap=8;hachureAngle=45;fillColor=#fad7ac;sketch=1;arcSize=50;strokeColor=#b46504;dashed=1;" parent="1" vertex="1">
          <mxGeometry x="3920" y="1745.44" width="90" height="30" as="geometry" />
        </mxCell>
        <mxCell id="WRboyPtA0cGVxALPe9MC-370" value="&lt;font color=&quot;#009999&quot; size=&quot;1&quot; face=&quot;Comic Sans MS&quot;&gt;&lt;b style=&quot;&quot;&gt;Swap Finished&lt;br&gt;&lt;/b&gt;&lt;/font&gt;" style="html=1;whiteSpace=wrap;shape=label;backgroundOutline=1;isoAngle=15;rounded=1;strokeWidth=2;fillWeight=4;hachureGap=8;hachureAngle=45;fillColor=none;sketch=1;arcSize=50;strokeColor=none;" parent="1" vertex="1">
          <mxGeometry x="3680" y="1685.44" width="160" height="30" as="geometry" />
        </mxCell>
        <mxCell id="WRboyPtA0cGVxALPe9MC-371" value="" style="rounded=1;whiteSpace=wrap;html=1;strokeWidth=2;fillWeight=4;hachureGap=8;hachureAngle=45;fillColor=none;sketch=1;strokeColor=default;" parent="1" vertex="1">
          <mxGeometry x="3961.5" y="1832.33" width="10" height="93.11" as="geometry" />
        </mxCell>
        <mxCell id="WRboyPtA0cGVxALPe9MC-372" value="&lt;font color=&quot;#009999&quot; size=&quot;1&quot; face=&quot;Comic Sans MS&quot;&gt;&lt;b style=&quot;&quot;&gt;+&lt;br&gt;&lt;/b&gt;&lt;/font&gt;" style="html=1;whiteSpace=wrap;shape=label;backgroundOutline=1;isoAngle=15;rounded=1;strokeWidth=2;fillWeight=4;hachureGap=8;hachureAngle=45;fillColor=none;sketch=1;arcSize=50;strokeColor=default;" parent="1" vertex="1">
          <mxGeometry x="3954.75" y="1792.1099999999997" width="23.5" height="30" as="geometry" />
        </mxCell>
        <mxCell id="WRboyPtA0cGVxALPe9MC-373" value="&lt;font color=&quot;#009999&quot; size=&quot;1&quot; face=&quot;Comic Sans MS&quot;&gt;&lt;b style=&quot;&quot;&gt;-&lt;br&gt;&lt;/b&gt;&lt;/font&gt;" style="html=1;whiteSpace=wrap;shape=label;backgroundOutline=1;isoAngle=15;rounded=1;strokeWidth=2;fillWeight=4;hachureGap=8;hachureAngle=45;fillColor=none;sketch=1;arcSize=50;strokeColor=default;" parent="1" vertex="1">
          <mxGeometry x="3954.75" y="1944" width="23.5" height="30" as="geometry" />
        </mxCell>
        <mxCell id="WRboyPtA0cGVxALPe9MC-374" value="" style="ellipse;whiteSpace=wrap;html=1;strokeWidth=2;fillWeight=2;hachureGap=8;fillColor=#000000;fillStyle=solid;sketch=1;" parent="1" vertex="1">
          <mxGeometry x="3961.5" y="1852.56" width="10" height="11.44" as="geometry" />
        </mxCell>
        <mxCell id="WRboyPtA0cGVxALPe9MC-377" value="" style="rounded=0;whiteSpace=wrap;html=1;" parent="1" vertex="1">
          <mxGeometry x="40" y="996.22" width="600" height="340" as="geometry" />
        </mxCell>
        <mxCell id="WRboyPtA0cGVxALPe9MC-379" value="&lt;span style=&quot;font-size: 40px;&quot;&gt;&lt;font color=&quot;#1a1a1a&quot; face=&quot;Comic Sans MS&quot;&gt;&amp;nbsp; ？&lt;/font&gt;&lt;/span&gt;" style="html=1;whiteSpace=wrap;shape=isoCube2;backgroundOutline=1;isoAngle=15;strokeWidth=2;strokeColor=#CCCCCC;fillColor=#FFFFFF;dashed=1;" parent="1" vertex="1">
          <mxGeometry x="475.00000000000045" y="1091.47" width="90" height="100" as="geometry" />
        </mxCell>
        <mxCell id="WRboyPtA0cGVxALPe9MC-394" style="edgeStyle=orthogonalEdgeStyle;rounded=0;orthogonalLoop=1;jettySize=auto;html=1;endArrow=none;endFill=0;strokeWidth=2;strokeColor=#999999;" parent="1" source="WRboyPtA0cGVxALPe9MC-383" target="WRboyPtA0cGVxALPe9MC-379" edge="1">
          <mxGeometry relative="1" as="geometry" />
        </mxCell>
        <mxCell id="WRboyPtA0cGVxALPe9MC-383" value="" style="html=1;whiteSpace=wrap;shape=isoCube2;backgroundOutline=1;isoAngle=15;strokeColor=#EA6B66;strokeWidth=2;fillColor=#F8CECC;" parent="1" vertex="1">
          <mxGeometry x="305" y="1090.97" width="90" height="100" as="geometry" />
        </mxCell>
        <mxCell id="WRboyPtA0cGVxALPe9MC-393" style="edgeStyle=orthogonalEdgeStyle;rounded=0;orthogonalLoop=1;jettySize=auto;html=1;endArrow=none;endFill=0;strokeWidth=2;strokeColor=#999999;" parent="1" source="WRboyPtA0cGVxALPe9MC-384" target="WRboyPtA0cGVxALPe9MC-383" edge="1">
          <mxGeometry relative="1" as="geometry" />
        </mxCell>
        <mxCell id="WRboyPtA0cGVxALPe9MC-384" value="" style="html=1;whiteSpace=wrap;shape=isoCube2;backgroundOutline=1;isoAngle=15;strokeColor=#67AB9F;fillColor=#D5E8D4;strokeWidth=2;" parent="1" vertex="1">
          <mxGeometry x="125" y="1091.47" width="90" height="100" as="geometry" />
        </mxCell>
        <mxCell id="WRboyPtA0cGVxALPe9MC-387" value="&lt;font face=&quot;Comic Sans MS&quot; style=&quot;font-size: 20px;&quot;&gt;&lt;b&gt;Back&lt;/b&gt;&lt;/font&gt;" style="html=1;whiteSpace=wrap;shape=label;backgroundOutline=1;isoAngle=15;rounded=1;strokeWidth=2;fillWeight=4;hachureGap=8;hachureAngle=45;fillColor=#fad9d5;sketch=1;arcSize=50;strokeColor=#ae4132;dashed=1;" parent="1" vertex="1">
          <mxGeometry x="60" y="1016.22" width="90" height="30" as="geometry" />
        </mxCell>
        <mxCell id="WRboyPtA0cGVxALPe9MC-388" value="&lt;font color=&quot;#009999&quot; size=&quot;1&quot; face=&quot;Comic Sans MS&quot;&gt;&lt;b style=&quot;&quot;&gt;Collection&lt;br&gt;&amp;nbsp;10%&lt;br&gt;&lt;/b&gt;&lt;/font&gt;" style="html=1;whiteSpace=wrap;shape=label;backgroundOutline=1;isoAngle=15;rounded=1;strokeWidth=2;fillWeight=4;hachureGap=8;hachureAngle=45;fillColor=none;sketch=1;arcSize=50;strokeColor=none;" parent="1" vertex="1">
          <mxGeometry x="270" y="1017.6600000000001" width="160" height="30" as="geometry" />
        </mxCell>
        <mxCell id="WRboyPtA0cGVxALPe9MC-395" value="" style="rounded=1;whiteSpace=wrap;html=1;strokeWidth=1;fillWeight=4;hachureGap=8;hachureAngle=45;fillColor=none;sketch=1;fillStyle=hachure;" parent="1" vertex="1">
          <mxGeometry x="195" y="1278.72" width="310" height="12" as="geometry" />
        </mxCell>
        <mxCell id="WRboyPtA0cGVxALPe9MC-397" value="" style="rounded=1;whiteSpace=wrap;html=1;strokeWidth=1;fillWeight=4;hachureGap=8;hachureAngle=45;fillColor=#A9C4EB;sketch=1;fillStyle=solid;strokeColor=#000000;" parent="1" vertex="1">
          <mxGeometry x="195" y="1276.22" width="265" height="14.5" as="geometry" />
        </mxCell>
        <mxCell id="WRboyPtA0cGVxALPe9MC-405" value="&lt;font color=&quot;#009999&quot; size=&quot;1&quot; face=&quot;Comic Sans MS&quot;&gt;&lt;b style=&quot;&quot;&gt;Cube 1&lt;/b&gt;&lt;/font&gt;" style="html=1;whiteSpace=wrap;shape=label;backgroundOutline=1;isoAngle=15;rounded=1;strokeWidth=2;fillWeight=4;hachureGap=8;hachureAngle=45;fillColor=none;sketch=1;arcSize=50;strokeColor=#0e8088;" parent="1" vertex="1">
          <mxGeometry x="135" y="1206.22" width="70" height="30" as="geometry" />
        </mxCell>
        <mxCell id="WRboyPtA0cGVxALPe9MC-406" value="&lt;font color=&quot;#009999&quot; size=&quot;1&quot; face=&quot;Comic Sans MS&quot;&gt;&lt;b style=&quot;&quot;&gt;Cube 2&lt;/b&gt;&lt;/font&gt;" style="html=1;whiteSpace=wrap;shape=label;backgroundOutline=1;isoAngle=15;rounded=1;strokeWidth=2;fillWeight=4;hachureGap=8;hachureAngle=45;fillColor=none;sketch=1;arcSize=50;strokeColor=#0e8088;" parent="1" vertex="1">
          <mxGeometry x="315" y="1204.56" width="70" height="30" as="geometry" />
        </mxCell>
        <mxCell id="WRboyPtA0cGVxALPe9MC-407" value="" style="rounded=0;whiteSpace=wrap;html=1;" parent="1" vertex="1">
          <mxGeometry x="40.000000000000114" y="1366.22" width="600" height="340" as="geometry" />
        </mxCell>
        <mxCell id="WRboyPtA0cGVxALPe9MC-413" value="&lt;font face=&quot;Comic Sans MS&quot; style=&quot;font-size: 20px;&quot;&gt;&lt;b&gt;Back&lt;/b&gt;&lt;/font&gt;" style="html=1;whiteSpace=wrap;shape=label;backgroundOutline=1;isoAngle=15;rounded=1;strokeWidth=2;fillWeight=4;hachureGap=8;hachureAngle=45;fillColor=#fad9d5;sketch=1;arcSize=50;strokeColor=#ae4132;dashed=1;" parent="1" vertex="1">
          <mxGeometry x="60.000000000000114" y="1386.22" width="90" height="30" as="geometry" />
        </mxCell>
        <mxCell id="WRboyPtA0cGVxALPe9MC-414" value="&lt;font color=&quot;#009999&quot; size=&quot;1&quot; face=&quot;Comic Sans MS&quot;&gt;&lt;b style=&quot;&quot;&gt;Tutorial&lt;br&gt;&lt;/b&gt;&lt;/font&gt;" style="html=1;whiteSpace=wrap;shape=label;backgroundOutline=1;isoAngle=15;rounded=1;strokeWidth=2;fillWeight=4;hachureGap=8;hachureAngle=45;fillColor=none;sketch=1;arcSize=50;strokeColor=none;" parent="1" vertex="1">
          <mxGeometry x="255.0000000000001" y="1387.66" width="160" height="30" as="geometry" />
        </mxCell>
        <mxCell id="WRboyPtA0cGVxALPe9MC-429" style="edgeStyle=orthogonalEdgeStyle;rounded=0;orthogonalLoop=1;jettySize=auto;html=1;exitX=1;exitY=0.5;exitDx=0;exitDy=0;exitPerimeter=0;curved=1;" parent="1" source="WRboyPtA0cGVxALPe9MC-419" target="WRboyPtA0cGVxALPe9MC-426" edge="1">
          <mxGeometry relative="1" as="geometry" />
        </mxCell>
        <mxCell id="WRboyPtA0cGVxALPe9MC-419" value="" style="shape=or;whiteSpace=wrap;html=1;strokeWidth=2;" parent="1" vertex="1">
          <mxGeometry x="350.0000000000001" y="1463.47" width="40" height="80" as="geometry" />
        </mxCell>
        <mxCell id="WRboyPtA0cGVxALPe9MC-428" style="edgeStyle=orthogonalEdgeStyle;rounded=0;orthogonalLoop=1;jettySize=auto;html=1;exitX=1;exitY=0.5;exitDx=0;exitDy=0;exitPerimeter=0;entryX=1;entryY=0.5;entryDx=0;entryDy=0;" parent="1" source="WRboyPtA0cGVxALPe9MC-420" target="WRboyPtA0cGVxALPe9MC-425" edge="1">
          <mxGeometry relative="1" as="geometry" />
        </mxCell>
        <mxCell id="WRboyPtA0cGVxALPe9MC-420" value="" style="shape=or;whiteSpace=wrap;html=1;rotation=-180;strokeWidth=2;" parent="1" vertex="1">
          <mxGeometry x="280.0000000000001" y="1462.72" width="40" height="80" as="geometry" />
        </mxCell>
        <mxCell id="WRboyPtA0cGVxALPe9MC-431" style="edgeStyle=orthogonalEdgeStyle;rounded=0;orthogonalLoop=1;jettySize=auto;html=1;exitX=0.5;exitY=1;exitDx=0;exitDy=0;" parent="1" source="WRboyPtA0cGVxALPe9MC-421" target="WRboyPtA0cGVxALPe9MC-430" edge="1">
          <mxGeometry relative="1" as="geometry" />
        </mxCell>
        <mxCell id="WRboyPtA0cGVxALPe9MC-421" value="" style="rounded=1;whiteSpace=wrap;html=1;arcSize=26;strokeWidth=2;" parent="1" vertex="1">
          <mxGeometry x="325.0000000000001" y="1472.72" width="20" height="60" as="geometry" />
        </mxCell>
        <mxCell id="WRboyPtA0cGVxALPe9MC-425" value="&lt;font color=&quot;#009999&quot; size=&quot;1&quot; face=&quot;Comic Sans MS&quot;&gt;&lt;b style=&quot;&quot;&gt;Swipe A Face&lt;/b&gt;&lt;/font&gt;" style="html=1;whiteSpace=wrap;shape=label;backgroundOutline=1;isoAngle=15;rounded=1;strokeWidth=2;fillWeight=4;hachureGap=8;hachureAngle=45;fillColor=none;sketch=1;arcSize=50;strokeColor=#0e8088;" parent="1" vertex="1">
          <mxGeometry x="100.00000000000011" y="1472.72" width="110" height="58.5" as="geometry" />
        </mxCell>
        <mxCell id="WRboyPtA0cGVxALPe9MC-426" value="&lt;font color=&quot;#009999&quot; size=&quot;1&quot; face=&quot;Comic Sans MS&quot;&gt;&lt;b style=&quot;&quot;&gt;Rotate Whole Cube&lt;/b&gt;&lt;/font&gt;" style="html=1;whiteSpace=wrap;shape=label;backgroundOutline=1;isoAngle=15;rounded=1;strokeWidth=2;fillWeight=4;hachureGap=8;hachureAngle=45;fillColor=none;sketch=1;arcSize=50;strokeColor=#0e8088;" parent="1" vertex="1">
          <mxGeometry x="460.0000000000001" y="1468.22" width="140" height="69.75" as="geometry" />
        </mxCell>
        <mxCell id="WRboyPtA0cGVxALPe9MC-430" value="&lt;font color=&quot;#009999&quot; size=&quot;1&quot; face=&quot;Comic Sans MS&quot;&gt;&lt;b style=&quot;&quot;&gt;Clockwise/&lt;br&gt;Anticlockwise&lt;/b&gt;&lt;/font&gt;" style="html=1;whiteSpace=wrap;shape=label;backgroundOutline=1;isoAngle=15;rounded=1;strokeWidth=2;fillWeight=4;hachureGap=8;hachureAngle=45;fillColor=none;sketch=1;arcSize=50;strokeColor=#0e8088;" parent="1" vertex="1">
          <mxGeometry x="260.0000000000001" y="1598.72" width="150" height="62" as="geometry" />
        </mxCell>
        <mxCell id="WRboyPtA0cGVxALPe9MC-434" value="" style="rounded=1;whiteSpace=wrap;html=1;strokeWidth=2;fillWeight=4;hachureGap=8;hachureAngle=45;fillColor=none;sketch=1;fillStyle=hachure;" parent="1" vertex="1">
          <mxGeometry x="250" y="547.45" width="253" height="12" as="geometry" />
        </mxCell>
        <mxCell id="WRboyPtA0cGVxALPe9MC-435" value="" style="ellipse;whiteSpace=wrap;html=1;strokeWidth=2;fillWeight=2;hachureGap=8;fillColor=#000000;fillStyle=solid;sketch=1;" parent="1" vertex="1">
          <mxGeometry x="320" y="544.95" width="20" height="21" as="geometry" />
        </mxCell>
        <mxCell id="WRboyPtA0cGVxALPe9MC-437" value="&lt;font face=&quot;Comic Sans MS&quot; style=&quot;font-size: 20px;&quot;&gt;&lt;b&gt;Back&lt;/b&gt;&lt;/font&gt;" style="html=1;whiteSpace=wrap;shape=label;backgroundOutline=1;isoAngle=15;rounded=1;strokeWidth=2;fillWeight=4;hachureGap=8;hachureAngle=45;fillColor=#fad9d5;sketch=1;arcSize=50;strokeColor=#ae4132;dashed=1;" parent="1" vertex="1">
          <mxGeometry x="747.9100000000002" y="57.660000000000025" width="90" height="30" as="geometry" />
        </mxCell>
        <mxCell id="WRboyPtA0cGVxALPe9MC-438" value="&lt;font face=&quot;Comic Sans MS&quot; style=&quot;font-size: 20px;&quot;&gt;&lt;b&gt;Back&lt;/b&gt;&lt;/font&gt;" style="html=1;whiteSpace=wrap;shape=label;backgroundOutline=1;isoAngle=15;rounded=1;strokeWidth=2;fillWeight=4;hachureGap=8;hachureAngle=45;fillColor=#fad9d5;sketch=1;arcSize=50;strokeColor=#ae4132;dashed=1;" parent="1" vertex="1">
          <mxGeometry x="747.9100000000002" y="403.88" width="90" height="30" as="geometry" />
        </mxCell>
        <mxCell id="WRboyPtA0cGVxALPe9MC-439" value="&lt;font face=&quot;Comic Sans MS&quot; style=&quot;font-size: 20px;&quot;&gt;&lt;b&gt;Back&lt;/b&gt;&lt;/font&gt;" style="html=1;whiteSpace=wrap;shape=label;backgroundOutline=1;isoAngle=15;rounded=1;strokeWidth=2;fillWeight=4;hachureGap=8;hachureAngle=45;fillColor=#fad9d5;sketch=1;arcSize=24;strokeColor=#ae4132;dashed=1;" parent="1" vertex="1">
          <mxGeometry x="747.9100000000002" y="747.66" width="90" height="30" as="geometry" />
        </mxCell>
        <mxCell id="WRboyPtA0cGVxALPe9MC-442" value="&lt;font face=&quot;Comic Sans MS&quot; style=&quot;font-size: 20px;&quot;&gt;5 Scenes&lt;/font&gt;" style="rounded=1;whiteSpace=wrap;html=1;" parent="1" vertex="1">
          <mxGeometry x="4315" y="270.1200000000001" width="120" height="60" as="geometry" />
        </mxCell>
        <mxCell id="WRboyPtA0cGVxALPe9MC-457" style="edgeStyle=orthogonalEdgeStyle;rounded=0;orthogonalLoop=1;jettySize=auto;html=1;entryX=0;entryY=0.5;entryDx=0;entryDy=0;" parent="1" source="WRboyPtA0cGVxALPe9MC-443" target="WRboyPtA0cGVxALPe9MC-452" edge="1">
          <mxGeometry relative="1" as="geometry" />
        </mxCell>
        <mxCell id="WRboyPtA0cGVxALPe9MC-443" value="&lt;font face=&quot;Comic Sans MS&quot;&gt;&lt;span style=&quot;font-size: 20px;&quot;&gt;Scene 1&lt;/span&gt;&lt;/font&gt;" style="rounded=1;whiteSpace=wrap;html=1;" parent="1" vertex="1">
          <mxGeometry x="4505" y="78.78000000000009" width="120" height="60" as="geometry" />
        </mxCell>
        <mxCell id="WRboyPtA0cGVxALPe9MC-459" style="edgeStyle=orthogonalEdgeStyle;rounded=0;orthogonalLoop=1;jettySize=auto;html=1;exitX=1;exitY=0.5;exitDx=0;exitDy=0;" parent="1" source="WRboyPtA0cGVxALPe9MC-444" target="WRboyPtA0cGVxALPe9MC-453" edge="1">
          <mxGeometry relative="1" as="geometry" />
        </mxCell>
        <mxCell id="WRboyPtA0cGVxALPe9MC-444" value="&lt;font face=&quot;Comic Sans MS&quot; style=&quot;font-size: 20px;&quot;&gt;Scene 2&lt;/font&gt;" style="rounded=1;whiteSpace=wrap;html=1;" parent="1" vertex="1">
          <mxGeometry x="4505" y="175.34000000000003" width="120" height="60" as="geometry" />
        </mxCell>
        <mxCell id="WRboyPtA0cGVxALPe9MC-460" style="edgeStyle=orthogonalEdgeStyle;rounded=0;orthogonalLoop=1;jettySize=auto;html=1;exitX=1;exitY=0.5;exitDx=0;exitDy=0;entryX=0;entryY=0.5;entryDx=0;entryDy=0;" parent="1" source="WRboyPtA0cGVxALPe9MC-445" target="WRboyPtA0cGVxALPe9MC-454" edge="1">
          <mxGeometry relative="1" as="geometry" />
        </mxCell>
        <mxCell id="WRboyPtA0cGVxALPe9MC-445" value="&lt;font face=&quot;Comic Sans MS&quot; style=&quot;font-size: 20px;&quot;&gt;Scene 3&lt;/font&gt;" style="rounded=1;whiteSpace=wrap;html=1;" parent="1" vertex="1">
          <mxGeometry x="4505" y="267.34000000000003" width="120" height="60" as="geometry" />
        </mxCell>
        <mxCell id="WRboyPtA0cGVxALPe9MC-461" style="edgeStyle=orthogonalEdgeStyle;rounded=0;orthogonalLoop=1;jettySize=auto;html=1;exitX=1;exitY=0.5;exitDx=0;exitDy=0;entryX=0;entryY=0.5;entryDx=0;entryDy=0;" parent="1" source="WRboyPtA0cGVxALPe9MC-446" target="WRboyPtA0cGVxALPe9MC-455" edge="1">
          <mxGeometry relative="1" as="geometry" />
        </mxCell>
        <mxCell id="WRboyPtA0cGVxALPe9MC-446" value="&lt;font face=&quot;Comic Sans MS&quot; style=&quot;font-size: 20px;&quot;&gt;Scene 4&lt;/font&gt;" style="rounded=1;whiteSpace=wrap;html=1;" parent="1" vertex="1">
          <mxGeometry x="4505" y="365.9000000000001" width="120" height="60" as="geometry" />
        </mxCell>
        <mxCell id="WRboyPtA0cGVxALPe9MC-462" style="edgeStyle=orthogonalEdgeStyle;rounded=0;orthogonalLoop=1;jettySize=auto;html=1;exitX=1;exitY=0.5;exitDx=0;exitDy=0;" parent="1" source="WRboyPtA0cGVxALPe9MC-447" target="WRboyPtA0cGVxALPe9MC-456" edge="1">
          <mxGeometry relative="1" as="geometry" />
        </mxCell>
        <mxCell id="WRboyPtA0cGVxALPe9MC-447" value="&lt;font face=&quot;Comic Sans MS&quot; style=&quot;font-size: 20px;&quot;&gt;Scene 5&lt;/font&gt;" style="rounded=1;whiteSpace=wrap;html=1;" parent="1" vertex="1">
          <mxGeometry x="4505" y="472.34000000000003" width="120" height="60" as="geometry" />
        </mxCell>
        <mxCell id="WRboyPtA0cGVxALPe9MC-449" style="edgeStyle=orthogonalEdgeStyle;rounded=0;orthogonalLoop=1;jettySize=auto;html=1;exitX=0.1;exitY=0.5;exitDx=0;exitDy=0;exitPerimeter=0;endArrow=none;endFill=0;" parent="1" source="WRboyPtA0cGVxALPe9MC-448" edge="1">
          <mxGeometry relative="1" as="geometry">
            <mxPoint x="4440" y="302.34000000000003" as="targetPoint" />
          </mxGeometry>
        </mxCell>
        <mxCell id="WRboyPtA0cGVxALPe9MC-448" value="" style="shape=curlyBracket;whiteSpace=wrap;html=1;rounded=1;labelPosition=left;verticalLabelPosition=middle;align=right;verticalAlign=middle;" parent="1" vertex="1">
          <mxGeometry x="4460" y="97.34000000000003" width="20" height="410" as="geometry" />
        </mxCell>
        <mxCell id="WRboyPtA0cGVxALPe9MC-469" style="rounded=0;orthogonalLoop=1;jettySize=auto;html=1;exitX=1;exitY=0.5;exitDx=0;exitDy=0;entryX=0;entryY=0.75;entryDx=0;entryDy=0;" parent="1" source="WRboyPtA0cGVxALPe9MC-452" target="WRboyPtA0cGVxALPe9MC-463" edge="1">
          <mxGeometry relative="1" as="geometry" />
        </mxCell>
        <mxCell id="WRboyPtA0cGVxALPe9MC-452" value="&lt;font face=&quot;Comic Sans MS&quot;&gt;&lt;span style=&quot;font-size: 20px;&quot;&gt;Room 1&lt;/span&gt;&lt;/font&gt;" style="rounded=1;whiteSpace=wrap;html=1;" parent="1" vertex="1">
          <mxGeometry x="4698" y="78.56000000000006" width="120" height="60" as="geometry" />
        </mxCell>
        <mxCell id="WRboyPtA0cGVxALPe9MC-470" style="rounded=0;orthogonalLoop=1;jettySize=auto;html=1;exitX=1;exitY=0.5;exitDx=0;exitDy=0;entryX=0;entryY=0.75;entryDx=0;entryDy=0;" parent="1" source="WRboyPtA0cGVxALPe9MC-453" target="WRboyPtA0cGVxALPe9MC-464" edge="1">
          <mxGeometry relative="1" as="geometry" />
        </mxCell>
        <mxCell id="WRboyPtA0cGVxALPe9MC-453" value="&lt;font face=&quot;Comic Sans MS&quot;&gt;&lt;span style=&quot;font-size: 20px;&quot;&gt;Room 2&lt;/span&gt;&lt;/font&gt;" style="rounded=1;whiteSpace=wrap;html=1;" parent="1" vertex="1">
          <mxGeometry x="4698" y="174.9000000000001" width="120" height="60" as="geometry" />
        </mxCell>
        <mxCell id="WRboyPtA0cGVxALPe9MC-454" value="&lt;font face=&quot;Comic Sans MS&quot;&gt;&lt;span style=&quot;font-size: 20px;&quot;&gt;Room 3, 4&lt;/span&gt;&lt;/font&gt;" style="rounded=1;whiteSpace=wrap;html=1;" parent="1" vertex="1">
          <mxGeometry x="4698" y="268.1200000000001" width="120" height="60" as="geometry" />
        </mxCell>
        <mxCell id="WRboyPtA0cGVxALPe9MC-477" style="edgeStyle=orthogonalEdgeStyle;rounded=0;orthogonalLoop=1;jettySize=auto;html=1;exitX=1;exitY=0.5;exitDx=0;exitDy=0;entryX=0.1;entryY=0.5;entryDx=0;entryDy=0;entryPerimeter=0;endArrow=none;endFill=0;" parent="1" source="WRboyPtA0cGVxALPe9MC-455" target="WRboyPtA0cGVxALPe9MC-473" edge="1">
          <mxGeometry relative="1" as="geometry" />
        </mxCell>
        <mxCell id="WRboyPtA0cGVxALPe9MC-455" value="&lt;font face=&quot;Comic Sans MS&quot;&gt;&lt;span style=&quot;font-size: 20px;&quot;&gt;Room 5, 6&lt;/span&gt;&lt;/font&gt;" style="rounded=1;whiteSpace=wrap;html=1;" parent="1" vertex="1">
          <mxGeometry x="4698" y="365.56000000000006" width="120" height="60" as="geometry" />
        </mxCell>
        <mxCell id="WRboyPtA0cGVxALPe9MC-480" style="rounded=0;orthogonalLoop=1;jettySize=auto;html=1;exitX=1;exitY=0.5;exitDx=0;exitDy=0;entryX=0.1;entryY=0.5;entryDx=0;entryDy=0;entryPerimeter=0;endArrow=none;endFill=0;" parent="1" source="WRboyPtA0cGVxALPe9MC-456" target="WRboyPtA0cGVxALPe9MC-476" edge="1">
          <mxGeometry relative="1" as="geometry" />
        </mxCell>
        <mxCell id="WRboyPtA0cGVxALPe9MC-456" value="&lt;font face=&quot;Comic Sans MS&quot;&gt;&lt;span style=&quot;font-size: 20px;&quot;&gt;Room 7, 8&lt;/span&gt;&lt;/font&gt;" style="rounded=1;whiteSpace=wrap;html=1;" parent="1" vertex="1">
          <mxGeometry x="4698" y="472.23" width="120" height="60" as="geometry" />
        </mxCell>
        <mxCell id="WRboyPtA0cGVxALPe9MC-463" value="&lt;font face=&quot;Comic Sans MS&quot;&gt;&lt;span style=&quot;font-size: 20px;&quot;&gt;Cube 1&lt;/span&gt;&lt;/font&gt;" style="rounded=1;whiteSpace=wrap;html=1;" parent="1" vertex="1">
          <mxGeometry x="4880" y="40" width="120" height="38.78" as="geometry" />
        </mxCell>
        <mxCell id="WRboyPtA0cGVxALPe9MC-464" value="&lt;font face=&quot;Comic Sans MS&quot;&gt;&lt;span style=&quot;font-size: 20px;&quot;&gt;Cube 2&lt;/span&gt;&lt;/font&gt;" style="rounded=1;whiteSpace=wrap;html=1;" parent="1" vertex="1">
          <mxGeometry x="4885" y="135.34000000000003" width="120" height="40" as="geometry" />
        </mxCell>
        <mxCell id="WRboyPtA0cGVxALPe9MC-465" value="&lt;font face=&quot;Comic Sans MS&quot;&gt;&lt;span style=&quot;font-size: 20px;&quot;&gt;Cube 3&lt;/span&gt;&lt;/font&gt;" style="rounded=1;whiteSpace=wrap;html=1;" parent="1" vertex="1">
          <mxGeometry x="4885" y="214.12" width="120" height="40" as="geometry" />
        </mxCell>
        <mxCell id="WRboyPtA0cGVxALPe9MC-466" value="&lt;font face=&quot;Comic Sans MS&quot;&gt;&lt;span style=&quot;font-size: 20px;&quot;&gt;Cube 4&lt;/span&gt;&lt;/font&gt;" style="rounded=1;whiteSpace=wrap;html=1;" parent="1" vertex="1">
          <mxGeometry x="4885" y="266.34000000000003" width="120" height="40" as="geometry" />
        </mxCell>
        <mxCell id="WRboyPtA0cGVxALPe9MC-468" value="" style="rounded=0;orthogonalLoop=1;jettySize=auto;html=1;endArrow=none;endFill=0;exitX=0.1;exitY=0.5;exitDx=0;exitDy=0;exitPerimeter=0;" parent="1" source="WRboyPtA0cGVxALPe9MC-467" target="WRboyPtA0cGVxALPe9MC-454" edge="1">
          <mxGeometry relative="1" as="geometry" />
        </mxCell>
        <mxCell id="WRboyPtA0cGVxALPe9MC-467" value="" style="shape=curlyBracket;whiteSpace=wrap;html=1;rounded=1;labelPosition=left;verticalLabelPosition=middle;align=right;verticalAlign=middle;" parent="1" vertex="1">
          <mxGeometry x="4860" y="223.89999999999998" width="20" height="80" as="geometry" />
        </mxCell>
        <mxCell id="WRboyPtA0cGVxALPe9MC-471" value="&lt;font face=&quot;Comic Sans MS&quot;&gt;&lt;span style=&quot;font-size: 20px;&quot;&gt;Cube 5&lt;/span&gt;&lt;/font&gt;" style="rounded=1;whiteSpace=wrap;html=1;" parent="1" vertex="1">
          <mxGeometry x="4885" y="347.34000000000003" width="120" height="40" as="geometry" />
        </mxCell>
        <mxCell id="WRboyPtA0cGVxALPe9MC-472" value="&lt;font face=&quot;Comic Sans MS&quot;&gt;&lt;span style=&quot;font-size: 20px;&quot;&gt;Cube 6&lt;/span&gt;&lt;/font&gt;" style="rounded=1;whiteSpace=wrap;html=1;" parent="1" vertex="1">
          <mxGeometry x="4885" y="403.56000000000006" width="120" height="40" as="geometry" />
        </mxCell>
        <mxCell id="WRboyPtA0cGVxALPe9MC-473" value="" style="shape=curlyBracket;whiteSpace=wrap;html=1;rounded=1;labelPosition=left;verticalLabelPosition=middle;align=right;verticalAlign=middle;" parent="1" vertex="1">
          <mxGeometry x="4865" y="355.34000000000003" width="20" height="80" as="geometry" />
        </mxCell>
        <mxCell id="WRboyPtA0cGVxALPe9MC-474" value="&lt;font face=&quot;Comic Sans MS&quot;&gt;&lt;span style=&quot;font-size: 20px;&quot;&gt;Cube 7&lt;/span&gt;&lt;/font&gt;" style="rounded=1;whiteSpace=wrap;html=1;" parent="1" vertex="1">
          <mxGeometry x="4885" y="475.45000000000005" width="120" height="40" as="geometry" />
        </mxCell>
        <mxCell id="WRboyPtA0cGVxALPe9MC-475" value="&lt;font face=&quot;Comic Sans MS&quot;&gt;&lt;span style=&quot;font-size: 20px;&quot;&gt;Cube 8&lt;/span&gt;&lt;/font&gt;" style="rounded=1;whiteSpace=wrap;html=1;" parent="1" vertex="1">
          <mxGeometry x="4885" y="530.6700000000001" width="120" height="40" as="geometry" />
        </mxCell>
        <mxCell id="WRboyPtA0cGVxALPe9MC-476" value="" style="shape=curlyBracket;whiteSpace=wrap;html=1;rounded=1;labelPosition=left;verticalLabelPosition=middle;align=right;verticalAlign=middle;" parent="1" vertex="1">
          <mxGeometry x="4860" y="483.68000000000006" width="20" height="80" as="geometry" />
        </mxCell>
        <mxCell id="WRboyPtA0cGVxALPe9MC-478" value="" style="shape=curlyBracket;whiteSpace=wrap;html=1;rounded=1;flipH=1;labelPosition=right;verticalLabelPosition=middle;align=left;verticalAlign=middle;" parent="1" vertex="1">
          <mxGeometry x="5030" y="80.56" width="20" height="470" as="geometry" />
        </mxCell>
        <mxCell id="WRboyPtA0cGVxALPe9MC-482" style="edgeStyle=orthogonalEdgeStyle;rounded=0;orthogonalLoop=1;jettySize=auto;html=1;exitX=1;exitY=0.5;exitDx=0;exitDy=0;" parent="1" edge="1">
          <mxGeometry relative="1" as="geometry">
            <mxPoint x="4310" y="298.34000000000003" as="targetPoint" />
            <mxPoint x="4285" y="298.12000000000023" as="sourcePoint" />
          </mxGeometry>
        </mxCell>
        <mxCell id="WRboyPtA0cGVxALPe9MC-481" value="&lt;font face=&quot;Comic Sans MS&quot; style=&quot;font-size: 20px;&quot;&gt;Game&lt;/font&gt;" style="rounded=1;whiteSpace=wrap;html=1;" parent="1" vertex="1">
          <mxGeometry x="4160" y="270.1200000000001" width="120" height="60" as="geometry" />
        </mxCell>
        <mxCell id="f5sMdZb20vZAGmIz1vKw-1" value="&lt;font face=&quot;Comic Sans MS&quot; style=&quot;font-size: 20px;&quot;&gt;&lt;b&gt;Back&lt;/b&gt;&lt;/font&gt;" style="html=1;whiteSpace=wrap;shape=label;backgroundOutline=1;isoAngle=15;rounded=1;strokeWidth=2;fillWeight=4;hachureGap=8;hachureAngle=45;fillColor=#fad9d5;sketch=1;arcSize=50;strokeColor=#ae4132;dashed=1;" vertex="1" parent="1">
          <mxGeometry x="50" y="690" width="90" height="30" as="geometry" />
        </mxCell>
        <mxCell id="f5sMdZb20vZAGmIz1vKw-2" value="&lt;font face=&quot;Comic Sans MS&quot; style=&quot;font-size: 20px;&quot;&gt;&lt;b&gt;Back&lt;/b&gt;&lt;/font&gt;" style="html=1;whiteSpace=wrap;shape=label;backgroundOutline=1;isoAngle=15;rounded=1;strokeWidth=2;fillWeight=4;hachureGap=8;hachureAngle=45;fillColor=#fad9d5;sketch=1;arcSize=50;strokeColor=#ae4132;dashed=1;" vertex="1" parent="1">
          <mxGeometry x="60" y="386.5" width="90" height="30" as="geometry" />
        </mxCell>
        <mxCell id="f5sMdZb20vZAGmIz1vKw-19" value="&lt;font size=&quot;1&quot; face=&quot;Comic Sans MS&quot;&gt;&lt;b style=&quot;font-size: 20px;&quot;&gt;Skill 3&lt;/b&gt;&lt;/font&gt;" style="html=1;whiteSpace=wrap;shape=label;backgroundOutline=1;isoAngle=15;rounded=1;strokeWidth=2;fillWeight=4;hachureGap=8;hachureAngle=45;fillColor=#e1d5e7;sketch=1;arcSize=50;strokeColor=#9673a6;dashed=1;" vertex="1" parent="1">
          <mxGeometry x="1440" y="530.1200000000001" width="90" height="30" as="geometry" />
        </mxCell>
        <mxCell id="f5sMdZb20vZAGmIz1vKw-20" value="&lt;font style=&quot;font-size: 20px;&quot; face=&quot;Comic Sans MS&quot;&gt;&lt;b&gt;Skill 4&lt;/b&gt;&lt;/font&gt;" style="html=1;whiteSpace=wrap;shape=label;backgroundOutline=1;isoAngle=15;rounded=1;strokeWidth=2;fillWeight=4;hachureGap=8;hachureAngle=45;fillColor=#fff2cc;sketch=1;arcSize=50;strokeColor=#d6b656;dashed=1;" vertex="1" parent="1">
          <mxGeometry x="1440" y="603.2199999999999" width="90" height="30" as="geometry" />
        </mxCell>
        <mxCell id="f5sMdZb20vZAGmIz1vKw-21" value="" style="rounded=0;whiteSpace=wrap;html=1;" vertex="1" parent="1">
          <mxGeometry x="45.000000000000114" y="1754" width="600" height="340" as="geometry" />
        </mxCell>
        <mxCell id="f5sMdZb20vZAGmIz1vKw-23" value="&lt;font color=&quot;#009999&quot; size=&quot;1&quot; face=&quot;Comic Sans MS&quot;&gt;&lt;b style=&quot;&quot;&gt;Back To Main Menu&lt;br&gt;&lt;/b&gt;&lt;/font&gt;" style="html=1;whiteSpace=wrap;shape=label;backgroundOutline=1;isoAngle=15;rounded=1;strokeWidth=2;fillWeight=4;hachureGap=8;hachureAngle=45;fillColor=none;sketch=1;arcSize=50;strokeColor=none;" vertex="1" parent="1">
          <mxGeometry x="240" y="1774" width="200" height="30" as="geometry" />
        </mxCell>
        <mxCell id="f5sMdZb20vZAGmIz1vKw-30" value="&lt;font size=&quot;1&quot; face=&quot;Comic Sans MS&quot;&gt;&lt;b style=&quot;&quot;&gt;Are you sure you want to go back to Main Menu?&lt;br&gt;&amp;nbsp;All Progress in current level will be abandoned.&lt;/b&gt;&lt;/font&gt;" style="html=1;whiteSpace=wrap;shape=label;backgroundOutline=1;isoAngle=15;rounded=1;strokeWidth=2;fillWeight=4;hachureGap=8;hachureAngle=45;fillColor=none;sketch=1;arcSize=50;strokeColor=#000000;" vertex="1" parent="1">
          <mxGeometry x="110.63" y="1835.58" width="468.75" height="115.28" as="geometry" />
        </mxCell>
        <mxCell id="f5sMdZb20vZAGmIz1vKw-34" value="&lt;font face=&quot;Comic Sans MS&quot; style=&quot;font-size: 20px;&quot;&gt;&lt;b&gt;Yes&lt;/b&gt;&lt;/font&gt;" style="html=1;whiteSpace=wrap;shape=label;backgroundOutline=1;isoAngle=15;rounded=1;strokeWidth=2;fillWeight=4;hachureGap=8;hachureAngle=45;fillColor=#fad9d5;sketch=1;arcSize=50;strokeColor=#ae4132;dashed=1;" vertex="1" parent="1">
          <mxGeometry x="200.0000000000001" y="1990" width="90" height="30" as="geometry" />
        </mxCell>
        <mxCell id="f5sMdZb20vZAGmIz1vKw-35" value="&lt;font face=&quot;Comic Sans MS&quot; style=&quot;font-size: 20px;&quot;&gt;&lt;b&gt;No&lt;/b&gt;&lt;/font&gt;" style="html=1;whiteSpace=wrap;shape=label;backgroundOutline=1;isoAngle=15;rounded=1;strokeWidth=2;fillWeight=4;hachureGap=8;hachureAngle=45;fillColor=#fad9d5;sketch=1;arcSize=50;strokeColor=#ae4132;dashed=1;" vertex="1" parent="1">
          <mxGeometry x="400.0000000000001" y="1990" width="90" height="30" as="geometry" />
        </mxCell>
        <mxCell id="f5sMdZb20vZAGmIz1vKw-36" value="" style="rounded=0;whiteSpace=wrap;html=1;" vertex="1" parent="1">
          <mxGeometry x="2793.4300000000003" y="39.22" width="600" height="360" as="geometry" />
        </mxCell>
        <mxCell id="f5sMdZb20vZAGmIz1vKw-37" value="" style="html=1;whiteSpace=wrap;shape=isoCube2;backgroundOutline=1;isoAngle=15;" vertex="1" parent="1">
          <mxGeometry x="3010" y="197.22" width="90" height="100" as="geometry" />
        </mxCell>
        <mxCell id="f5sMdZb20vZAGmIz1vKw-38" value="" style="html=1;whiteSpace=wrap;shape=isoCube2;backgroundOutline=1;isoAngle=15;" vertex="1" parent="1">
          <mxGeometry x="3101" y="199.22" width="90" height="100" as="geometry" />
        </mxCell>
        <mxCell id="f5sMdZb20vZAGmIz1vKw-39" value="" style="html=1;whiteSpace=wrap;shape=isoCube2;backgroundOutline=1;isoAngle=15;" vertex="1" parent="1">
          <mxGeometry x="3055" y="221.22" width="90" height="100" as="geometry" />
        </mxCell>
        <mxCell id="f5sMdZb20vZAGmIz1vKw-40" value="" style="html=1;whiteSpace=wrap;shape=isoCube2;backgroundOutline=1;isoAngle=15;" vertex="1" parent="1">
          <mxGeometry x="3055" y="119.22" width="90" height="100" as="geometry" />
        </mxCell>
        <mxCell id="f5sMdZb20vZAGmIz1vKw-41" value="" style="html=1;whiteSpace=wrap;shape=isoCube2;backgroundOutline=1;isoAngle=15;" vertex="1" parent="1">
          <mxGeometry x="3010" y="140.22" width="90" height="100" as="geometry" />
        </mxCell>
        <mxCell id="f5sMdZb20vZAGmIz1vKw-42" value="" style="html=1;whiteSpace=wrap;shape=isoCube2;backgroundOutline=1;isoAngle=15;" vertex="1" parent="1">
          <mxGeometry x="3101" y="141.22" width="90" height="100" as="geometry" />
        </mxCell>
        <mxCell id="f5sMdZb20vZAGmIz1vKw-43" value="" style="html=1;whiteSpace=wrap;shape=isoCube2;backgroundOutline=1;isoAngle=15;strokeColor=#10739e;fillColor=#b1ddf0;strokeWidth=3;dashed=1;" vertex="1" parent="1">
          <mxGeometry x="3054" y="169.22" width="90" height="100" as="geometry" />
        </mxCell>
        <mxCell id="f5sMdZb20vZAGmIz1vKw-44" value="&lt;font size=&quot;1&quot; face=&quot;Comic Sans MS&quot;&gt;&lt;b style=&quot;font-size: 16px;&quot;&gt;Commutate&lt;/b&gt;&lt;/font&gt;" style="html=1;whiteSpace=wrap;shape=label;backgroundOutline=1;isoAngle=15;rounded=1;strokeWidth=2;fillWeight=4;hachureGap=8;hachureAngle=45;fillColor=#b0e3e6;sketch=1;arcSize=50;strokeColor=#0e8088;dashed=1;" vertex="1" parent="1">
          <mxGeometry x="3260" y="167.66000000000005" width="90" height="30" as="geometry" />
        </mxCell>
        <mxCell id="f5sMdZb20vZAGmIz1vKw-45" value="&lt;font size=&quot;1&quot; face=&quot;Comic Sans MS&quot;&gt;&lt;b style=&quot;&quot;&gt;Associate&lt;/b&gt;&lt;/font&gt;" style="html=1;whiteSpace=wrap;shape=label;backgroundOutline=1;isoAngle=15;rounded=1;strokeWidth=2;fillWeight=4;hachureGap=8;hachureAngle=45;fillColor=#fad7ac;sketch=1;arcSize=50;strokeColor=#b46504;dashed=1;" vertex="1" parent="1">
          <mxGeometry x="3260" y="227.66000000000005" width="90" height="30" as="geometry" />
        </mxCell>
        <mxCell id="f5sMdZb20vZAGmIz1vKw-46" value="&lt;font color=&quot;#009999&quot; size=&quot;1&quot; face=&quot;Comic Sans MS&quot;&gt;&lt;b style=&quot;&quot;&gt;Commutate&lt;br&gt;&lt;/b&gt;&lt;/font&gt;" style="html=1;whiteSpace=wrap;shape=label;backgroundOutline=1;isoAngle=15;rounded=1;strokeWidth=2;fillWeight=4;hachureGap=8;hachureAngle=45;fillColor=none;sketch=1;arcSize=50;strokeColor=none;" vertex="1" parent="1">
          <mxGeometry x="3013.43" y="57.66" width="160" height="30" as="geometry" />
        </mxCell>
        <mxCell id="f5sMdZb20vZAGmIz1vKw-51" value="" style="endArrow=classic;html=1;rounded=1;exitX=0;exitY=0.5;exitDx=0;exitDy=0;strokeWidth=3;dashed=1;strokeColor=#10739E;" edge="1" parent="1" source="f5sMdZb20vZAGmIz1vKw-44" target="f5sMdZb20vZAGmIz1vKw-43">
          <mxGeometry width="50" height="50" relative="1" as="geometry">
            <mxPoint x="3230" y="340.6600000000001" as="sourcePoint" />
            <mxPoint x="3280" y="290.6600000000001" as="targetPoint" />
            <Array as="points" />
          </mxGeometry>
        </mxCell>
        <mxCell id="f5sMdZb20vZAGmIz1vKw-52" value="" style="rounded=0;whiteSpace=wrap;html=1;" vertex="1" parent="1">
          <mxGeometry x="2793.4300000000003" y="453.22" width="600" height="360" as="geometry" />
        </mxCell>
        <mxCell id="f5sMdZb20vZAGmIz1vKw-53" value="" style="html=1;whiteSpace=wrap;shape=isoCube2;backgroundOutline=1;isoAngle=15;" vertex="1" parent="1">
          <mxGeometry x="3013.4300000000003" y="611.22" width="90" height="100" as="geometry" />
        </mxCell>
        <mxCell id="f5sMdZb20vZAGmIz1vKw-55" value="" style="html=1;whiteSpace=wrap;shape=isoCube2;backgroundOutline=1;isoAngle=15;" vertex="1" parent="1">
          <mxGeometry x="3105.0000000000005" y="611.22" width="90" height="100" as="geometry" />
        </mxCell>
        <mxCell id="f5sMdZb20vZAGmIz1vKw-56" value="" style="html=1;whiteSpace=wrap;shape=isoCube2;backgroundOutline=1;isoAngle=15;" vertex="1" parent="1">
          <mxGeometry x="3058.4300000000003" y="533.22" width="90" height="100" as="geometry" />
        </mxCell>
        <mxCell id="f5sMdZb20vZAGmIz1vKw-57" value="" style="html=1;whiteSpace=wrap;shape=isoCube2;backgroundOutline=1;isoAngle=15;" vertex="1" parent="1">
          <mxGeometry x="3013.4300000000003" y="554.22" width="90" height="100" as="geometry" />
        </mxCell>
        <mxCell id="f5sMdZb20vZAGmIz1vKw-58" value="" style="html=1;whiteSpace=wrap;shape=isoCube2;backgroundOutline=1;isoAngle=15;" vertex="1" parent="1">
          <mxGeometry x="3104.4300000000003" y="555.22" width="90" height="100" as="geometry" />
        </mxCell>
        <mxCell id="f5sMdZb20vZAGmIz1vKw-62" value="&lt;font color=&quot;#009999&quot; size=&quot;1&quot; face=&quot;Comic Sans MS&quot;&gt;&lt;b style=&quot;&quot;&gt;Selecting the other cube&lt;br&gt;&lt;/b&gt;&lt;/font&gt;" style="html=1;whiteSpace=wrap;shape=label;backgroundOutline=1;isoAngle=15;rounded=1;strokeWidth=2;fillWeight=4;hachureGap=8;hachureAngle=45;fillColor=none;sketch=1;arcSize=50;strokeColor=none;" vertex="1" parent="1">
          <mxGeometry x="3023.4300000000003" y="474.6600000000001" width="160" height="30" as="geometry" />
        </mxCell>
        <mxCell id="f5sMdZb20vZAGmIz1vKw-82" value="" style="rounded=0;whiteSpace=wrap;html=1;" vertex="1" parent="1">
          <mxGeometry x="2793.43" y="861.21" width="600" height="360" as="geometry" />
        </mxCell>
        <mxCell id="f5sMdZb20vZAGmIz1vKw-83" value="" style="html=1;whiteSpace=wrap;shape=isoCube2;backgroundOutline=1;isoAngle=15;" vertex="1" parent="1">
          <mxGeometry x="3013.43" y="1019.21" width="90" height="100" as="geometry" />
        </mxCell>
        <mxCell id="f5sMdZb20vZAGmIz1vKw-85" value="" style="html=1;whiteSpace=wrap;shape=isoCube2;backgroundOutline=1;isoAngle=15;" vertex="1" parent="1">
          <mxGeometry x="3105" y="1019.21" width="90" height="100" as="geometry" />
        </mxCell>
        <mxCell id="f5sMdZb20vZAGmIz1vKw-86" value="" style="html=1;whiteSpace=wrap;shape=isoCube2;backgroundOutline=1;isoAngle=15;" vertex="1" parent="1">
          <mxGeometry x="3058.43" y="941.21" width="90" height="100" as="geometry" />
        </mxCell>
        <mxCell id="f5sMdZb20vZAGmIz1vKw-87" value="" style="html=1;whiteSpace=wrap;shape=isoCube2;backgroundOutline=1;isoAngle=15;" vertex="1" parent="1">
          <mxGeometry x="3013.43" y="962.21" width="90" height="100" as="geometry" />
        </mxCell>
        <mxCell id="f5sMdZb20vZAGmIz1vKw-88" value="" style="html=1;whiteSpace=wrap;shape=isoCube2;backgroundOutline=1;isoAngle=15;" vertex="1" parent="1">
          <mxGeometry x="3104.43" y="963.21" width="90" height="100" as="geometry" />
        </mxCell>
        <mxCell id="f5sMdZb20vZAGmIz1vKw-92" value="&lt;font color=&quot;#009999&quot; size=&quot;1&quot; face=&quot;Comic Sans MS&quot;&gt;&lt;b style=&quot;&quot;&gt;Associate Finished&lt;br&gt;&lt;/b&gt;&lt;/font&gt;" style="html=1;whiteSpace=wrap;shape=label;backgroundOutline=1;isoAngle=15;rounded=1;strokeWidth=2;fillWeight=4;hachureGap=8;hachureAngle=45;fillColor=none;sketch=1;arcSize=50;strokeColor=none;" vertex="1" parent="1">
          <mxGeometry x="3023.43" y="882.6500000000001" width="160" height="30" as="geometry" />
        </mxCell>
        <mxCell id="f5sMdZb20vZAGmIz1vKw-97" value="" style="rounded=0;whiteSpace=wrap;html=1;" vertex="1" parent="1">
          <mxGeometry x="2790" y="1663.22" width="600" height="360" as="geometry" />
        </mxCell>
        <mxCell id="f5sMdZb20vZAGmIz1vKw-98" value="" style="html=1;whiteSpace=wrap;shape=isoCube2;backgroundOutline=1;isoAngle=15;" vertex="1" parent="1">
          <mxGeometry x="3010" y="1821.22" width="90" height="100" as="geometry" />
        </mxCell>
        <mxCell id="f5sMdZb20vZAGmIz1vKw-99" value="" style="html=1;whiteSpace=wrap;shape=isoCube2;backgroundOutline=1;isoAngle=15;strokeWidth=1;strokeColor=#000000;fillColor=#FFFFFF;" vertex="1" parent="1">
          <mxGeometry x="3099.8100000000004" y="1821.1000000000001" width="90" height="100" as="geometry" />
        </mxCell>
        <mxCell id="f5sMdZb20vZAGmIz1vKw-100" value="" style="html=1;whiteSpace=wrap;shape=isoCube2;backgroundOutline=1;isoAngle=15;" vertex="1" parent="1">
          <mxGeometry x="3055" y="1843.22" width="90" height="100" as="geometry" />
        </mxCell>
        <mxCell id="f5sMdZb20vZAGmIz1vKw-101" value="" style="html=1;whiteSpace=wrap;shape=isoCube2;backgroundOutline=1;isoAngle=15;" vertex="1" parent="1">
          <mxGeometry x="3055" y="1743.22" width="90" height="100" as="geometry" />
        </mxCell>
        <mxCell id="f5sMdZb20vZAGmIz1vKw-102" value="" style="html=1;whiteSpace=wrap;shape=isoCube2;backgroundOutline=1;isoAngle=15;" vertex="1" parent="1">
          <mxGeometry x="3010" y="1764.22" width="90" height="100" as="geometry" />
        </mxCell>
        <mxCell id="f5sMdZb20vZAGmIz1vKw-103" value="" style="html=1;whiteSpace=wrap;shape=isoCube2;backgroundOutline=1;isoAngle=15;" vertex="1" parent="1">
          <mxGeometry x="3100" y="1764.22" width="90" height="100" as="geometry" />
        </mxCell>
        <mxCell id="f5sMdZb20vZAGmIz1vKw-104" value="" style="html=1;whiteSpace=wrap;shape=isoCube2;backgroundOutline=1;isoAngle=15;strokeColor=#000000;fillColor=#FFFFFF;strokeWidth=1;" vertex="1" parent="1">
          <mxGeometry x="3055" y="1786.22" width="90" height="100" as="geometry" />
        </mxCell>
        <mxCell id="f5sMdZb20vZAGmIz1vKw-105" value="&lt;font style=&quot;font-size: 20px;&quot; face=&quot;Comic Sans MS&quot;&gt;&lt;b&gt;Swap&lt;/b&gt;&lt;/font&gt;" style="html=1;whiteSpace=wrap;shape=label;backgroundOutline=1;isoAngle=15;rounded=1;strokeWidth=2;fillWeight=4;hachureGap=8;hachureAngle=45;fillColor=#b0e3e6;sketch=1;arcSize=50;strokeColor=#0e8088;dashed=1;" vertex="1" parent="1">
          <mxGeometry x="3260" y="1694.66" width="90" height="30" as="geometry" />
        </mxCell>
        <mxCell id="f5sMdZb20vZAGmIz1vKw-106" value="&lt;font size=&quot;1&quot; face=&quot;Comic Sans MS&quot;&gt;&lt;b style=&quot;font-size: 20px;&quot;&gt;Skill 2&lt;/b&gt;&lt;/font&gt;" style="html=1;whiteSpace=wrap;shape=label;backgroundOutline=1;isoAngle=15;rounded=1;strokeWidth=2;fillWeight=4;hachureGap=8;hachureAngle=45;fillColor=#fad7ac;sketch=1;arcSize=50;strokeColor=#b46504;dashed=1;" vertex="1" parent="1">
          <mxGeometry x="3260" y="1744.66" width="90" height="30" as="geometry" />
        </mxCell>
        <mxCell id="f5sMdZb20vZAGmIz1vKw-107" value="&lt;font color=&quot;#009999&quot; size=&quot;1&quot; face=&quot;Comic Sans MS&quot;&gt;&lt;b style=&quot;&quot;&gt;Swap Finished&lt;br&gt;&lt;/b&gt;&lt;/font&gt;" style="html=1;whiteSpace=wrap;shape=label;backgroundOutline=1;isoAngle=15;rounded=1;strokeWidth=2;fillWeight=4;hachureGap=8;hachureAngle=45;fillColor=none;sketch=1;arcSize=50;strokeColor=none;" vertex="1" parent="1">
          <mxGeometry x="3020" y="1684.66" width="160" height="30" as="geometry" />
        </mxCell>
        <mxCell id="f5sMdZb20vZAGmIz1vKw-108" value="" style="rounded=1;whiteSpace=wrap;html=1;strokeWidth=2;fillWeight=4;hachureGap=8;hachureAngle=45;fillColor=none;sketch=1;strokeColor=default;" vertex="1" parent="1">
          <mxGeometry x="3301.5" y="1831.55" width="10" height="93.11" as="geometry" />
        </mxCell>
        <mxCell id="f5sMdZb20vZAGmIz1vKw-109" value="&lt;font color=&quot;#009999&quot; size=&quot;1&quot; face=&quot;Comic Sans MS&quot;&gt;&lt;b style=&quot;&quot;&gt;+&lt;br&gt;&lt;/b&gt;&lt;/font&gt;" style="html=1;whiteSpace=wrap;shape=label;backgroundOutline=1;isoAngle=15;rounded=1;strokeWidth=2;fillWeight=4;hachureGap=8;hachureAngle=45;fillColor=none;sketch=1;arcSize=50;strokeColor=default;" vertex="1" parent="1">
          <mxGeometry x="3294.75" y="1791.3299999999997" width="23.5" height="30" as="geometry" />
        </mxCell>
        <mxCell id="f5sMdZb20vZAGmIz1vKw-110" value="&lt;font color=&quot;#009999&quot; size=&quot;1&quot; face=&quot;Comic Sans MS&quot;&gt;&lt;b style=&quot;&quot;&gt;-&lt;br&gt;&lt;/b&gt;&lt;/font&gt;" style="html=1;whiteSpace=wrap;shape=label;backgroundOutline=1;isoAngle=15;rounded=1;strokeWidth=2;fillWeight=4;hachureGap=8;hachureAngle=45;fillColor=none;sketch=1;arcSize=50;strokeColor=default;" vertex="1" parent="1">
          <mxGeometry x="3294.75" y="1943.22" width="23.5" height="30" as="geometry" />
        </mxCell>
        <mxCell id="f5sMdZb20vZAGmIz1vKw-111" value="" style="ellipse;whiteSpace=wrap;html=1;strokeWidth=2;fillWeight=2;hachureGap=8;fillColor=#000000;fillStyle=solid;sketch=1;" vertex="1" parent="1">
          <mxGeometry x="3301.5" y="1851.78" width="10" height="11.44" as="geometry" />
        </mxCell>
        <mxCell id="f5sMdZb20vZAGmIz1vKw-113" value="&lt;font size=&quot;1&quot; face=&quot;Comic Sans MS&quot;&gt;&lt;b style=&quot;&quot;&gt;Transpose&lt;/b&gt;&lt;/font&gt;" style="html=1;whiteSpace=wrap;shape=label;backgroundOutline=1;isoAngle=15;rounded=1;strokeWidth=2;fillWeight=4;hachureGap=8;hachureAngle=45;fillColor=#e1d5e7;sketch=1;arcSize=50;strokeColor=#9673a6;dashed=1;" vertex="1" parent="1">
          <mxGeometry x="2860" y="162.66000000000014" width="90" height="30" as="geometry" />
        </mxCell>
        <mxCell id="f5sMdZb20vZAGmIz1vKw-114" value="&lt;font size=&quot;1&quot; style=&quot;&quot; face=&quot;Comic Sans MS&quot;&gt;&lt;b style=&quot;&quot;&gt;Diagonise&lt;/b&gt;&lt;/font&gt;" style="html=1;whiteSpace=wrap;shape=label;backgroundOutline=1;isoAngle=15;rounded=1;strokeWidth=2;fillWeight=4;hachureGap=8;hachureAngle=45;fillColor=#fff2cc;sketch=1;arcSize=50;strokeColor=#d6b656;dashed=1;" vertex="1" parent="1">
          <mxGeometry x="2860" y="226.2199999999999" width="90" height="30" as="geometry" />
        </mxCell>
        <mxCell id="f5sMdZb20vZAGmIz1vKw-119" value="&lt;font size=&quot;1&quot; face=&quot;Comic Sans MS&quot;&gt;&lt;b style=&quot;font-size: 16px;&quot;&gt;Commutate&lt;/b&gt;&lt;/font&gt;" style="html=1;whiteSpace=wrap;shape=label;backgroundOutline=1;isoAngle=15;rounded=1;strokeWidth=2;fillWeight=4;hachureGap=8;hachureAngle=45;fillColor=#b0e3e6;sketch=1;arcSize=50;strokeColor=#0e8088;dashed=1;" vertex="1" parent="1">
          <mxGeometry x="3254" y="583.12" width="90" height="30" as="geometry" />
        </mxCell>
        <mxCell id="f5sMdZb20vZAGmIz1vKw-120" value="&lt;font size=&quot;1&quot; face=&quot;Comic Sans MS&quot;&gt;&lt;b style=&quot;&quot;&gt;Associate&lt;/b&gt;&lt;/font&gt;" style="html=1;whiteSpace=wrap;shape=label;backgroundOutline=1;isoAngle=15;rounded=1;strokeWidth=2;fillWeight=4;hachureGap=8;hachureAngle=45;fillColor=#fad7ac;sketch=1;arcSize=50;strokeColor=#b46504;dashed=1;" vertex="1" parent="1">
          <mxGeometry x="3254" y="643.12" width="90" height="30" as="geometry" />
        </mxCell>
        <mxCell id="f5sMdZb20vZAGmIz1vKw-121" value="&lt;font size=&quot;1&quot; face=&quot;Comic Sans MS&quot;&gt;&lt;b style=&quot;&quot;&gt;Transpose&lt;/b&gt;&lt;/font&gt;" style="html=1;whiteSpace=wrap;shape=label;backgroundOutline=1;isoAngle=15;rounded=1;strokeWidth=2;fillWeight=4;hachureGap=8;hachureAngle=45;fillColor=#e1d5e7;sketch=1;arcSize=50;strokeColor=#9673a6;dashed=1;" vertex="1" parent="1">
          <mxGeometry x="2854" y="578.1200000000001" width="90" height="30" as="geometry" />
        </mxCell>
        <mxCell id="f5sMdZb20vZAGmIz1vKw-122" value="&lt;font size=&quot;1&quot; style=&quot;&quot; face=&quot;Comic Sans MS&quot;&gt;&lt;b style=&quot;&quot;&gt;Diagonise&lt;/b&gt;&lt;/font&gt;" style="html=1;whiteSpace=wrap;shape=label;backgroundOutline=1;isoAngle=15;rounded=1;strokeWidth=2;fillWeight=4;hachureGap=8;hachureAngle=45;fillColor=#fff2cc;sketch=1;arcSize=50;strokeColor=#d6b656;dashed=1;" vertex="1" parent="1">
          <mxGeometry x="2854" y="641.6799999999998" width="90" height="30" as="geometry" />
        </mxCell>
        <mxCell id="f5sMdZb20vZAGmIz1vKw-54" value="" style="html=1;whiteSpace=wrap;shape=isoCube2;backgroundOutline=1;isoAngle=15;dashed=1;strokeWidth=3;strokeColor=#5D7BA6;fillColor=#A9C4EB;" vertex="1" parent="1">
          <mxGeometry x="3058.4300000000003" y="647.6600000000001" width="90" height="100" as="geometry" />
        </mxCell>
        <mxCell id="f5sMdZb20vZAGmIz1vKw-59" value="" style="html=1;whiteSpace=wrap;shape=isoCube2;backgroundOutline=1;isoAngle=15;strokeColor=#10739e;fillColor=#B1DDF0;strokeWidth=3;dashed=1;" vertex="1" parent="1">
          <mxGeometry x="3057.4300000000003" y="583.22" width="90" height="100" as="geometry" />
        </mxCell>
        <mxCell id="f5sMdZb20vZAGmIz1vKw-123" value="&lt;font size=&quot;1&quot; face=&quot;Comic Sans MS&quot;&gt;&lt;b style=&quot;font-size: 16px;&quot;&gt;Commutate&lt;/b&gt;&lt;/font&gt;" style="html=1;whiteSpace=wrap;shape=label;backgroundOutline=1;isoAngle=15;rounded=1;strokeWidth=2;fillWeight=4;hachureGap=8;hachureAngle=45;fillColor=#f5f5f5;sketch=1;arcSize=50;strokeColor=#666666;dashed=1;fontColor=#333333;" vertex="1" parent="1">
          <mxGeometry x="3254" y="972.89" width="90" height="30" as="geometry" />
        </mxCell>
        <mxCell id="f5sMdZb20vZAGmIz1vKw-124" value="&lt;font size=&quot;1&quot; face=&quot;Comic Sans MS&quot;&gt;&lt;b style=&quot;&quot;&gt;Associate&lt;/b&gt;&lt;/font&gt;" style="html=1;whiteSpace=wrap;shape=label;backgroundOutline=1;isoAngle=15;rounded=1;strokeWidth=2;fillWeight=4;hachureGap=8;hachureAngle=45;fillColor=#ffe6cc;sketch=1;arcSize=50;strokeColor=#d79b00;dashed=1;" vertex="1" parent="1">
          <mxGeometry x="3254" y="1035" width="90" height="30" as="geometry" />
        </mxCell>
        <mxCell id="f5sMdZb20vZAGmIz1vKw-125" value="&lt;font size=&quot;1&quot; face=&quot;Comic Sans MS&quot;&gt;&lt;b style=&quot;&quot;&gt;Transpose&lt;/b&gt;&lt;/font&gt;" style="html=1;whiteSpace=wrap;shape=label;backgroundOutline=1;isoAngle=15;rounded=1;strokeWidth=2;fillWeight=4;hachureGap=8;hachureAngle=45;fillColor=#e1d5e7;sketch=1;arcSize=50;strokeColor=#9673a6;dashed=1;" vertex="1" parent="1">
          <mxGeometry x="2854" y="978.7700000000002" width="90" height="30" as="geometry" />
        </mxCell>
        <mxCell id="f5sMdZb20vZAGmIz1vKw-126" value="&lt;font size=&quot;1&quot; style=&quot;&quot; face=&quot;Comic Sans MS&quot;&gt;&lt;b style=&quot;&quot;&gt;Diagonise&lt;/b&gt;&lt;/font&gt;" style="html=1;whiteSpace=wrap;shape=label;backgroundOutline=1;isoAngle=15;rounded=1;strokeWidth=2;fillWeight=4;hachureGap=8;hachureAngle=45;fillColor=#fff2cc;sketch=1;arcSize=50;strokeColor=#d6b656;dashed=1;" vertex="1" parent="1">
          <mxGeometry x="2854" y="1042.33" width="90" height="30" as="geometry" />
        </mxCell>
        <mxCell id="f5sMdZb20vZAGmIz1vKw-128" value="" style="html=1;shadow=0;dashed=0;align=center;verticalAlign=middle;shape=mxgraph.arrows2.uTurnArrow;dy=2.47;arrowHead=43;dx2=20.8;rotation=-180;fillStyle=zigzag;sketch=1;curveFitting=1;jiggle=2;fillColor=#FFD966;" vertex="1" parent="1">
          <mxGeometry x="3350" y="968.1100000000001" width="36.57" height="54" as="geometry" />
        </mxCell>
        <mxCell id="f5sMdZb20vZAGmIz1vKw-84" value="" style="html=1;whiteSpace=wrap;shape=isoCube2;backgroundOutline=1;isoAngle=15;dashed=1;strokeWidth=3;strokeColor=#10739E;fillColor=#B1DDF0;" vertex="1" parent="1">
          <mxGeometry x="3059.2400000000002" y="1042.0900000000001" width="90" height="100" as="geometry" />
        </mxCell>
        <mxCell id="f5sMdZb20vZAGmIz1vKw-89" value="" style="html=1;whiteSpace=wrap;shape=isoCube2;backgroundOutline=1;isoAngle=15;strokeColor=#5D7BA6;fillColor=#7EA6E0;strokeWidth=3;dashed=1;" vertex="1" parent="1">
          <mxGeometry x="3058.43" y="984.21" width="90" height="100" as="geometry" />
        </mxCell>
      </root>
    </mxGraphModel>
  </diagram>
</mxfile>
